<svg id="Layer_1" data-name="Layer 1" xmlns="http://www.w3.org/2000/svg" viewBox="0 0 48 48"><title>accounting</title><path d="M329.2,388h-24a.76.76,0,0,0-.8.8v30.4a.76.76,0,0,0,.8.8h24a.76.76,0,0,0,.8-.8V388.8a.76.76,0,0,0-.8-.8Zm-.8,1.6v4.8H306v-1.6h9.6v-1.6H306v-1.6ZM306,418.4V396h22.4v22.4Zm0,0" transform="translate(-282 -372)"/><rect x="28" y="25.6" width="2.4" height="1.6"/><rect x="32" y="25.6" width="2.4" height="1.6"/><rect x="36" y="25.6" width="2.4" height="1.6"/><rect x="40" y="25.6" width="2.4" height="1.6"/><rect x="26.4" y="29.6" width="3.2" height="1.6"/><rect x="31.2" y="29.6" width="3.2" height="1.6"/><rect x="36" y="29.6" width="3.2" height="1.6"/><rect x="40.8" y="29.6" width="3.2" height="1.6"/><rect x="26.4" y="32.8" width="3.2" height="1.6"/><rect x="31.2" y="32.8" width="3.2" height="1.6"/><rect x="36" y="32.8" width="3.2" height="1.6"/><rect x="40.8" y="32.8" width="3.2" height="1.6"/><rect x="26.4" y="36" width="3.2" height="1.6"/><rect x="31.2" y="36" width="3.2" height="1.6"/><rect x="36" y="36" width="3.2" height="1.6"/><rect x="40.8" y="36" width="3.2" height="1.6"/><rect x="26.4" y="39.2" width="3.2" height="1.6"/><rect x="31.2" y="39.2" width="3.2" height="1.6"/><rect x="36" y="39.2" width="3.2" height="1.6"/><rect x="40.8" y="39.2" width="3.2" height="1.6"/><rect x="26.4" y="42.4" width="3.2" height="1.6"/><rect x="31.2" y="42.4" width="3.2" height="1.6"/><rect x="36" y="42.4" width="3.2" height="1.6"/><rect x="40.8" y="42.4" width="3.2" height="1.6"/><path d="M283.6,383.2h8.8a.76.76,0,0,0,.8-.8v-8.8h27.2v11.2H322v-12a.76.76,0,0,0-.8-.8H292.4a.29.29,0,0,0-.24.08h-.08c-.08.08-.16.08-.24.16l-9.6,9.6c-.08.08-.08.16-.16.24v.08c0,.08-.08.16-.08.24v8.8h1.6Zm8-1.6h-6.88l6.88-6.88Zm0,0" transform="translate(-282 -372)"/><path d="M302,406.4h-8.8V395.2a.76.76,0,0,0-.8-.8h-9.6a.76.76,0,0,0-.8.8v24a.76.76,0,0,0,.8.8H302a.76.76,0,0,0,.8-.8v-12a.76.76,0,0,0-.8-.8ZM283.6,408h8v2.4h-8Zm8-1.6h-8V404h8Zm0-4h-8V400h8Zm-8,9.6h8v2.4h-8Zm9.6,0h8v2.4h-8Zm8-1.6h-8V408h8ZM283.6,396h8v2.4h-8Zm0,20h8v2.4h-8Zm17.6,2.4h-8V416h8Zm0,0" transform="translate(-282 -372)"/><rect x="30.4" y="4" width="5.6" height="1.6"/><rect x="21.6" y="8" width="14.4" height="1.6"/><rect x="35.2" y="19.2" width="2.4" height="1.6"/></svg>