<?xml version="1.0" encoding="utf-8"?>
<!-- Generator: Adobe Illustrator 22.1.0, SVG Export Plug-In . SVG Version: 6.00 Build 0)  -->
<svg version="1.1" id="Слой_1" xmlns="http://www.w3.org/2000/svg" xmlns:xlink="http://www.w3.org/1999/xlink" x="0px" y="0px"
	 viewBox="0 0 7 4" style="enable-background:new 0 0 7 4;" xml:space="preserve">

<path id="angle-down.svg" class="st0" d="M0.2,0.2c0.2-0.2,0.6-0.2,0.8,0L3.9,3c0.2,0.2,0.2,0.6,0,0.8C3.7,4,3.3,4,3.1,3.8L0.2,0.9
	C-0.1,0.7-0.1,0.4,0.2,0.2C0.2,0.2,0.2,0.2,0.2,0.2z M3.1,3L6,0.2c0.2-0.2,0.6-0.2,0.8,0C7,0.4,7,0.7,6.8,0.9L3.9,3.8
	C3.7,4,3.3,4,3.1,3.8C2.9,3.6,2.9,3.3,3.1,3C3.1,3,3.1,3,3.1,3L3.1,3z"/>
</svg>
