<?xml version="1.0" encoding="utf-8"?>
<!-- Generator: Adobe Illustrator 22.1.0, SVG Export Plug-In . SVG Version: 6.00 Build 0)  -->
<svg version="1.1" id="Слой_1" xmlns="http://www.w3.org/2000/svg" xmlns:xlink="http://www.w3.org/1999/xlink" x="0px" y="0px"
	 viewBox="0 0 448 384" style="enable-background:new 0 0 448 384;" xml:space="preserve">

<path d="M169.4,374.6l-160-160c-12.5-12.5-12.5-32.8,0-45.3l160-160c12.5-12.5,32.8-12.5,45.3,0c12.5,12.5,12.5,32.8,0,45.3
	L109.3,160H416c17.7,0,32,14.3,32,32c0,17.7-14.3,32-32,32H109.3l105.4,105.4c6.2,6.2,9.4,14.4,9.4,22.6s-3.1,16.4-9.4,22.6
	C202.1,387.1,181.9,387.1,169.4,374.6z"/>
</svg>
