<svg xmlns="http://www.w3.org/2000/svg" viewBox="0 0 88 88"><defs><style>.cls-1{fill:#40bde8;}</style></defs><title>Asset 5</title><g id="Layer_2" data-name="Layer 2"><g id="Layer_1-2" data-name="Layer 1"><path class="cls-1" d="M44.05,45.88a4,4,0,1,0,4,4A4,4,0,0,0,44.05,45.88Z"/><path class="cls-1" d="M59.78,35a4,4,0,1,0,4,4A4,4,0,0,0,59.78,35Z"/><path class="cls-1" d="M28.22,35a4,4,0,1,0,4,4A4,4,0,0,0,28.22,35Z"/><path class="cls-1" d="M44,0A44,44,0,1,0,88,44,44,44,0,0,0,44,0ZM29.51,45.44V65.7a1.3,1.3,0,0,1-2.59,0V45.45a6.57,6.57,0,0,1,0-12.87V22.29a1.3,1.3,0,0,1,2.59,0V32.58a6.56,6.56,0,0,1,0,12.86ZM45.34,56.29V65.7a1.3,1.3,0,0,1-2.59,0V56.29a6.57,6.57,0,0,1,0-12.87V22.29a1.3,1.3,0,0,1,2.59,0V43.42a6.56,6.56,0,0,1,0,12.87ZM61.08,45.44V65.71a1.3,1.3,0,0,1-2.59,0V45.45a6.56,6.56,0,0,1,0-12.87V22.29a1.3,1.3,0,0,1,2.59,0V32.58a6.56,6.56,0,0,1,0,12.86Z"/></g></g></svg>