<svg xmlns="http://www.w3.org/2000/svg" xmlns:xlink="http://www.w3.org/1999/xlink" viewBox="0 0 84.24 93"><defs><style>.cls-1{fill:none;}.cls-2{clip-path:url(#clip-path);}</style><clipPath id="clip-path"><rect class="cls-1" width="85" height="93"/></clipPath></defs><title>attach</title><g id="Layer_2" data-name="Layer 2"><g id="Layer_1-2" data-name="Layer 1"><g class="cls-2"><path d="M38.8,41.48a3.28,3.28,0,1,0-4.64-4.64L16.8,54.2A15.5,15.5,0,0,0,38.72,76.12l39.2-39.2A21.64,21.64,0,0,0,47.28,6.36L8.16,45.48A27.84,27.84,0,0,0,27.84,93a27.46,27.46,0,0,0,19.68-8.16L64.88,67.48a3.28,3.28,0,1,0-4.64-4.64L42.88,80.2A21.27,21.27,0,1,1,12.8,50.12L51.92,11A14.88,14.88,0,0,1,62.56,6.6,15.08,15.08,0,0,1,73.2,11a14.88,14.88,0,0,1,4.4,10.64,15.08,15.08,0,0,1-4.4,10.64L34,71.48a9,9,0,0,1-12.64,0,8.88,8.88,0,0,1,0-12.64Z"/></g></g></g></svg>