<svg id="Layer_1" data-name="Layer 1" xmlns="http://www.w3.org/2000/svg" viewBox="0 0 372 295.2"><title>contacts</title><path d="M214,349a50,50,0,1,0-50-50,50.06,50.06,0,0,0,50,50Zm0-88a38,38,0,1,1-38,38,38,38,0,0,1,38-38Zm0,0" transform="translate(-120 -249)"/><path d="M346,349a50,50,0,1,0-50-50,50.06,50.06,0,0,0,50,50Zm0-88a38,38,0,1,1-38,38,38,38,0,0,1,38-38Zm0,0" transform="translate(-120 -249)"/><path d="M410.93,416.11a6,6,0,0,0,9.49-7.34,94,94,0,0,0-127-20.51,6,6,0,1,0,6.72,9.94,82,82,0,0,1,110.77,17.91Zm0,0" transform="translate(-120 -249)"/><path d="M214,372.2a94.11,94.11,0,0,0-94,94,6,6,0,1,0,12,0,82,82,0,0,1,164,0,6,6,0,1,0,12,0,94.11,94.11,0,0,0-94-94Zm0,0" transform="translate(-120 -249)"/><path d="M434,428.2a58,58,0,1,0,58,58,58.07,58.07,0,0,0-58-58Zm0,104a46,46,0,1,1,46-46,46.05,46.05,0,0,1-46,46Zm0,0" transform="translate(-120 -249)"/><path d="M454,480.2H440v-14a6,6,0,0,0-12,0v14H414a6,6,0,0,0,0,12h14v14a6,6,0,0,0,12,0v-14h14a6,6,0,0,0,0-12Zm0,0" transform="translate(-120 -249)"/></svg>