<svg id="Capa_1" data-name="Capa 1" xmlns="http://www.w3.org/2000/svg" viewBox="0 0 512 512"><title>dashboard</title><path d="M435.14,129.36a20,20,0,0,0-25.4-2.39c-29.93,20.4-180,123-196.17,139.1a60,60,0,0,0,84.86,84.86c16.13-16.14,118.7-166.24,139.1-196.17A20,20,0,0,0,435.14,129.36Zm-165,193.28a20,20,0,0,1-28.29-28.28c6.27-6.19,48.89-36.59,101.32-73C306.73,273.76,276.33,316.38,270.14,322.64ZM512,308.5a255,255,0,0,1-43.37,142.11,20,20,0,0,1-25.23,6.95l-42-20a20,20,0,1,1,17.2-36.12l25.78,12.28a215.32,215.32,0,0,0,8.6-194,20,20,0,0,1,36.46-16.46A254.09,254.09,0,0,1,512,308.5ZM119,410.73a20,20,0,0,1-9.21,26.74l-41,20a20,20,0,0,1-25.4-6.86A255.93,255.93,0,0,1,361.23,75.06a20,20,0,1,1-16.46,36.46A213.49,213.49,0,0,0,276,93.4v30.1a20,20,0,0,1-40,0V93.42A216.27,216.27,0,0,0,71.72,195.92l27.93,13.4a20,20,0,1,1-17.3,36.07L54.06,231.82A215,215,0,0,0,67.54,413.57l24.69-12.05A20,20,0,0,1,119,410.73Z"/></svg>