<?xml version="1.0" encoding="utf-8"?>
<!-- Generator: Adobe Illustrator 22.1.0, SVG Export Plug-In . SVG Version: 6.00 Build 0)  -->
<svg version="1.1" id="Слой_1" xmlns="http://www.w3.org/2000/svg" xmlns:xlink="http://www.w3.org/1999/xlink" x="0px" y="0px"
	 viewBox="0 0 512 512" style="enable-background:new 0 0 512 512;" xml:space="preserve">
<g>
	<path d="M256,0C168,0,96.4,71.6,96.4,159.6c0,50.6,23.9,97.9,64.3,128v13.3c-9.8,8.6-16.1,21.3-16.1,35.4
		c0,12.4,4.8,23.7,12.7,32.1c-7.9,8.4-12.7,19.7-12.7,32.1c0,21.1,14,39.1,33.2,45C184,483.2,216.7,512,256,512s72-28.8,78.2-66.4
		c19.2-6,33.2-23.9,33.2-45c0-12.4-4.8-23.7-12.7-32.1c7.9-8.4,12.7-19.7,12.7-32.1c0-14.1-6.2-26.8-16.1-35.4v-13.3
		c40.4-30.1,64.3-77.4,64.3-128C415.6,71.6,344,0,256,0L256,0z M320.3,319.2c9.4,0,17.1,7.7,17.1,17.1c0,9.4-7.7,17.1-17.1,17.1
		H191.7c-9.4,0-17.1-7.7-17.1-17.1c0-9.4,7.7-17.1,17.1-17.1H320.3z M256,482c-21.9,0-40.6-14.4-46.9-34.3h93.9
		C296.6,467.6,277.9,482,256,482L256,482z M320.3,417.7H191.7c-9.4,0-17.1-7.7-17.1-17.1c0-9.5,7.7-17.1,17.1-17.1h128.5
		c9.4,0,17.1,7.7,17.1,17.1C337.4,410,329.7,417.7,320.3,417.7L320.3,417.7z M328,267.4c-4.2,2.8-6.7,7.5-6.7,12.5v9.4
		c-0.4,0-0.7,0-1.1,0h-17.1v-59.1l21.5-21.5c5.9-5.9,5.9-15.4,0-21.2c-5.9-5.9-15.4-5.9-21.2,0l-25.9,25.9
		c-2.8,2.8-4.4,6.6-4.4,10.6v65.3h-34.3v-65.3c0-4-1.6-7.8-4.4-10.6l-25.9-25.9c-5.9-5.9-15.4-5.9-21.2,0c-5.9,5.9-5.9,15.4,0,21.2
		l21.5,21.5v59.1h-17.1c-0.4,0-0.7,0-1.1,0v-9.4c0-5-2.5-9.7-6.7-12.5c-36.1-24.1-57.6-64.4-57.6-107.8C126.4,88.1,184.5,30,256,30
		s129.6,58.1,129.6,129.6C385.6,202.9,364.1,243.2,328,267.4L328,267.4z M328,267.4"/>
	<path d="M62.1,159.6c0-8.3-6.7-15-15-15H15c-8.3,0-15,6.7-15,15c0,8.3,6.7,15,15,15h32.1C55.4,174.6,62.1,167.9,62.1,159.6
		L62.1,159.6z M62.1,159.6"/>
	<path d="M497,144.6h-32.1c-8.3,0-15,6.7-15,15c0,8.3,6.7,15,15,15H497c8.3,0,15-6.7,15-15C512,151.3,505.3,144.6,497,144.6
		L497,144.6z M497,144.6"/>
	<path d="M67.6,251l-27.8,16.1c-7.2,4.1-9.6,13.3-5.5,20.5c2.8,4.8,7.8,7.5,13,7.5c2.5,0,5.1-0.6,7.5-2L82.6,277
		c7.2-4.1,9.6-13.3,5.5-20.5C84,249.4,74.8,246.9,67.6,251L67.6,251z M67.6,251"/>
	<path d="M436.9,70.2c2.5,0,5.1-0.6,7.5-2l27.8-16.1c7.2-4.1,9.6-13.3,5.5-20.5c-4.1-7.2-13.3-9.6-20.5-5.5l-27.8,16.1
		c-7.2,4.1-9.6,13.3-5.5,20.5C426.7,67.5,431.7,70.2,436.9,70.2L436.9,70.2z M436.9,70.2"/>
	<path d="M472.2,267.1L444.4,251c-7.2-4.1-16.4-1.7-20.5,5.5c-4.1,7.2-1.7,16.3,5.5,20.5l27.8,16.1c2.4,1.4,4.9,2,7.5,2
		c5.2,0,10.2-2.7,13-7.5C481.8,280.4,479.4,271.3,472.2,267.1L472.2,267.1z M472.2,267.1"/>
	<path d="M82.6,42.2L54.8,26.1c-7.2-4.1-16.3-1.7-20.5,5.5c-4.1,7.2-1.7,16.3,5.5,20.5l27.8,16.1c2.4,1.4,4.9,2,7.5,2
		c5.2,0,10.2-2.7,13-7.5C92.2,55.5,89.8,46.3,82.6,42.2L82.6,42.2z M82.6,42.2"/>
</g>
</svg>
