<?xml version="1.0" encoding="utf-8"?>
<!-- Generator: Adobe Illustrator 22.1.0, SVG Export Plug-In . SVG Version: 6.00 Build 0)  -->
<svg version="1.1" id="Capa_1" xmlns="http://www.w3.org/2000/svg" xmlns:xlink="http://www.w3.org/1999/xlink" x="0px" y="0px"
	 viewBox="0 0 512 512" style="enable-background:new 0 0 512 512;" xml:space="preserve">
<g>
	<g>
		<path d="M497,0h-96.4H15C6.7,0,0,6.7,0,15v482c0,8.3,6.7,15,15,15h385.6c8.3,0,15-6.7,15-15v-12l22.6,22.6
			c2.9,2.9,6.8,4.4,10.6,4.4s7.7-1.5,10.6-4.4l48.2-48.2c2.8-2.8,4.4-6.6,4.4-10.6V15C512,6.7,505.3,0,497,0z M385.6,448.8V482H30
			V30h355.6V448.8z M482,442.6l-33.2,33.2l-33.2-33.2V126.4H482V442.6z M482,96.4h-66.4V30H482V96.4z"/>
	</g>
</g>
<g>
	<g>
		<path d="M304.2,385.6H111.4c-8.3,0-15,6.7-15,15s6.7,15,15,15h192.8c8.3,0,15-6.7,15-15S312.5,385.6,304.2,385.6z"/>
	</g>
</g>
<g>
	<g>
		<path d="M304.2,289.2H111.4c-8.3,0-15,6.7-15,15s6.7,15,15,15h192.8c8.3,0,15-6.7,15-15C319.2,295.9,312.5,289.2,304.2,289.2z"/>
	</g>
</g>
<g>
	<g>
		<path d="M304.2,192.8H111.4c-8.3,0-15,6.7-15,15s6.7,15,15,15h192.8c8.3,0,15-6.7,15-15C319.2,199.5,312.5,192.8,304.2,192.8z"/>
	</g>
</g>
<g>
	<g>
		<path d="M272.1,96.4H143.5c-8.3,0-15,6.7-15,15s6.7,15,15,15h128.5c8.3,0,15-6.7,15-15S280.4,96.4,272.1,96.4z"/>
	</g>
</g>
</svg>
