<svg xmlns="http://www.w3.org/2000/svg" xmlns:xlink="http://www.w3.org/1999/xlink" viewBox="0 0 404.85 511"><defs><style>.cls-1{fill:none;}.cls-2{clip-path:url(#clip-path);}</style><clipPath id="clip-path" transform="translate(-0.89)"><rect class="cls-1" y="1" width="406" height="511"/></clipPath></defs><title>file</title><g id="Layer_2" data-name="Layer 2"><g id="Layer_1-2" data-name="Layer 1"><g class="cls-2"><path d="M276.27,4A12.38,12.38,0,0,0,267.38,0H68C31.26,0,.89,30.24.89,67V444c0,36.78,30.37,67,67.15,67H338.6c36.78,0,67.14-30.24,67.14-67V144.66a13.27,13.27,0,0,0-3.58-8.64Zm3.57,39.62,84.31,88.5h-54.8a29.39,29.39,0,0,1-29.51-29.37ZM338.6,486.32H68C45,486.32,25.58,467.19,25.58,444V67C25.58,44,44.84,24.69,68,24.69H255.16v78a54,54,0,0,0,54.19,54.06h71.71V444a42.67,42.67,0,0,1-42.46,42.34Z" transform="translate(-0.89)"/></g><path d="M304.9,401.15H101.73a12.35,12.35,0,0,0,0,24.69H305a12.35,12.35,0,1,0-.13-24.69Z" transform="translate(-0.89)"/><path d="M194.31,356.84a12.25,12.25,0,0,0,18,0l72.33-77.64a12.31,12.31,0,0,0-18-16.79l-51,54.68V182.31a12.34,12.34,0,1,0-24.68,0V317.09l-50.86-54.68a12.31,12.31,0,0,0-18,16.79Z" transform="translate(-0.89)"/></g></g></svg>