<?xml version="1.0" encoding="utf-8"?>
<!-- Generator: Adobe Illustrator 22.1.0, SVG Export Plug-In . SVG Version: 6.00 Build 0)  -->
<svg version="1.1" id="Слой_1" xmlns="http://www.w3.org/2000/svg" xmlns:xlink="http://www.w3.org/1999/xlink" x="0px" y="0px"
	 viewBox="0 0 90 90" style="enable-background:new 0 0 90 90;" xml:space="preserve">

<g id="Layer_2">
	<g id="Layer_1-2">
		<g>
			<path class="st0" d="M46.3,44.4V23.3c-0.1-0.7-0.7-1.2-1.4-1.2c-0.6,0.1-1.1,0.6-1.2,1.2v21.1c-3.6,0.7-5.8,4.2-5.1,7.8
				c0.5,2.6,2.5,4.6,5.1,5.1v9.4c0.1,0.7,0.7,1.2,1.4,1.2c0.6-0.1,1.1-0.6,1.2-1.2v-9.4c3.6-0.7,5.9-4.2,5.2-7.7
				C51,47,48.9,44.9,46.3,44.4z M45,54.8c-2.2,0-4-1.8-4-4s1.8-4,4-4s4,1.8,4,4S47.3,54.8,45,54.8z"/>
		</g>
		<g>
			<path class="st0" d="M30.5,33.6V23.3c-0.1-0.7-0.7-1.2-1.4-1.2c-0.6,0.1-1.1,0.6-1.2,1.2v10.3c-3.6,0.7-5.8,4.2-5.1,7.8
				c0.5,2.6,2.5,4.6,5.1,5.1v20.2c0.1,0.7,0.7,1.2,1.4,1.2c0.6-0.1,1.1-0.6,1.2-1.2V46.4c3.6-0.7,5.8-4.2,5.1-7.7
				C35.1,36.1,33.1,34.1,30.5,33.6z M29.2,44c-2.2,0-4-1.8-4-4c0-2.2,1.8-4,4-4s4,1.8,4,4C33.2,42.2,31.4,44,29.2,44L29.2,44z"/>
		</g>
		<g>
			<path class="st0" d="M62.1,33.6V23.3c-0.1-0.7-0.7-1.2-1.4-1.2c-0.6,0.1-1.1,0.6-1.2,1.2v10.3c-3.6,0.7-5.9,4.2-5.2,7.7
				c0.5,2.6,2.6,4.6,5.2,5.2v20.3c0.1,0.7,0.7,1.2,1.4,1.2c0.6-0.1,1.1-0.6,1.2-1.2V46.4c3.6-0.7,5.8-4.2,5.1-7.7
				C66.7,36.1,64.7,34.1,62.1,33.6z M60.8,44c-2.2,0-4-1.8-4-4s1.8-4,4-4s4,1.8,4,4S63,44,60.8,44z"/>
		</g>
		<g>
			<path class="st0" d="M45,90C20.2,90,0,69.8,0,45C0,20.2,20.2,0,45,0c24.8,0,45,20.2,45,45C90,69.8,69.8,90,45,90z M45,2
				C21.3,2,2,21.3,2,45c0,23.7,19.3,43,43,43c23.7,0,43-19.3,43-43C88,21.3,68.7,2,45,2z"/>
		</g>
	</g>
</g>
</svg>
