<?xml version="1.0" encoding="utf-8"?>
<!-- Generator: Adobe Illustrator 22.1.0, SVG Export Plug-In . SVG Version: 6.00 Build 0)  -->
<svg version="1.1" id="Слой_1" xmlns="http://www.w3.org/2000/svg" xmlns:xlink="http://www.w3.org/1999/xlink" x="0px" y="0px"
	 viewBox="0 0 44.7 45.9" style="enable-background:new 0 0 44.7 45.9;" xml:space="preserve">
<g id="Layer_2">
	<g id="Layer_1-2">
		<g>
			<path d="M23.6,22.3V1.2C23.5,0.5,22.9,0,22.2,0c-0.6,0.1-1.1,0.6-1.2,1.2v21.1c-3.6,0.7-5.8,4.2-5.1,7.8c0.5,2.6,2.5,4.6,5.1,5.1
				v9.4c0.1,0.7,0.7,1.2,1.4,1.2c0.6-0.1,1.1-0.6,1.2-1.2v-9.4c3.6-0.7,5.9-4.2,5.2-7.7C28.3,24.9,26.2,22.8,23.6,22.3z M22.3,32.7
				c-2.2,0-4-1.8-4-4s1.8-4,4-4s4,1.8,4,4S24.6,32.7,22.3,32.7z"/>
		</g>
		<g>
			<path d="M7.8,11.5V1.2C7.7,0.5,7.1,0,6.4,0C5.8,0.1,5.3,0.6,5.2,1.2v10.3c-3.6,0.7-5.8,4.2-5.1,7.8c0.5,2.6,2.5,4.6,5.1,5.1v20.2
				c0.1,0.7,0.7,1.2,1.4,1.2c0.6-0.1,1.1-0.6,1.2-1.2V24.3c3.6-0.7,5.8-4.2,5.1-7.7C12.4,14,10.4,12,7.8,11.5z M6.5,21.9
				c-2.2,0-4-1.8-4-4s1.8-4,4-4s4,1.8,4,4S8.7,21.9,6.5,21.9L6.5,21.9z"/>
		</g>
		<g>
			<path d="M39.4,11.5V1.2C39.3,0.5,38.7,0,38,0c-0.6,0.1-1.1,0.6-1.2,1.2v10.3c-3.6,0.7-5.9,4.2-5.2,7.7c0.5,2.6,2.6,4.6,5.2,5.2
				v20.3c0.1,0.7,0.7,1.2,1.4,1.2c0.6-0.1,1.1-0.6,1.2-1.2V24.3c3.6-0.7,5.8-4.2,5.1-7.7C44,14,42,12,39.4,11.5z M38.1,21.9
				c-2.2,0-4-1.8-4-4s1.8-4,4-4s4,1.8,4,4S40.3,21.9,38.1,21.9z"/>
		</g>
	</g>
</g>
</svg>
