<?xml version="1.0" encoding="utf-8"?>
<!-- Generator: Adobe Illustrator 22.1.0, SVG Export Plug-In . SVG Version: 6.00 Build 0)  -->
<svg version="1.1" id="Capa_1" xmlns="http://www.w3.org/2000/svg" xmlns:xlink="http://www.w3.org/1999/xlink" x="0px" y="0px"
	 viewBox="0 0 368 272" style="enable-background:new 0 0 368 272;" xml:space="preserve">
<g>
	<g>
		<path d="M365,129.8L205,1.8c-2.4-1.9-5.7-2.3-8.5-1C193.8,2.1,192,4.9,192,8v72H16C7.2,80,0,87.2,0,96v80c0,8.8,7.2,16,16,16h176
			v72c0,3.1,1.8,5.9,4.5,7.2c1.1,0.5,2.3,0.8,3.5,0.8c1.8,0,3.6-0.6,5-1.8l160-128c1.9-1.5,3-3.8,3-6.2S366.9,131.3,365,129.8z
			 M208,247.4V184c0-4.4-3.6-8-8-8H16l0-80h0h184c4.4,0,8-3.6,8-8V24.6L347.2,136L208,247.4z"/>
	</g>
</g>
</svg>
