<?xml version="1.0" encoding="utf-8"?>
<!-- Generator: Adobe Illustrator 22.1.0, SVG Export Plug-In . SVG Version: 6.00 Build 0)  -->
<svg version="1.1" id="Слой_1" xmlns="http://www.w3.org/2000/svg" xmlns:xlink="http://www.w3.org/1999/xlink" x="0px" y="0px"
	 viewBox="0 0 19 19.1" style="enable-background:new 0 0 19 19.1;" xml:space="preserve">

<g id="grid.svg_1_">

	<g>
		<path class="st3" d="M8.5,9h-8C0.2,9,0,8.8,0,8.5v-8C0,0.2,0.2,0,0.5,0h8C8.8,0,9,0.2,9,0.5v8C9,8.8,8.8,9,8.5,9z M1,8h7V1H1V8z"
			/>
	</g>
</g>
<g id="grid.svg_2_">

	<g>
		<path class="st3" d="M8.5,19h-8C0.2,19,0,18.8,0,18.5v-8C0,10.2,0.2,10,0.5,10h8C8.8,10,9,10.2,9,10.5v8C9,18.8,8.8,19,8.5,19z
			 M1,18h7v-7H1V18z"/>
	</g>
</g>
<g id="grid.svg_5_">

	<g>
		<path class="st3" d="M18.4,9h-8c-0.3,0-0.5-0.2-0.5-0.5v-8c0-0.3,0.2-0.5,0.5-0.5h8c0.3,0,0.5,0.2,0.5,0.5v8
			C18.9,8.8,18.7,9,18.4,9z M10.9,8h7V1h-7V8z"/>
	</g>
</g>
<g id="grid.svg_4_">

	<g>
		<path class="st3" d="M18.4,19h-8c-0.3,0-0.5-0.2-0.5-0.5v-8c0-0.3,0.2-0.5,0.5-0.5h8c0.3,0,0.5,0.2,0.5,0.5v8
			C18.9,18.8,18.7,19,18.4,19z M10.9,18h7v-7h-7V18z"/>
	</g>
</g>
</svg>
