<?xml version="1.0" encoding="utf-8"?>
<!-- Generator: Adobe Illustrator 22.1.0, SVG Export Plug-In . SVG Version: 6.00 Build 0)  -->
<svg version="1.1" id="Capa_1" xmlns="http://www.w3.org/2000/svg" xmlns:xlink="http://www.w3.org/1999/xlink" x="0px" y="0px"
	 viewBox="0 0 512 512" style="enable-background:new 0 0 512 512;" xml:space="preserve">
<g>
	<g>
		<path d="M497,289.2H352.4c-8.3,0-15,6.7-15,15c0,44.9-36.5,81.4-81.4,81.4s-81.4-36.5-81.4-81.4c0-8.3-6.7-15-15-15H15
			c-8.3,0-15,6.7-15,15V497c0,8.3,6.7,15,15,15h482c8.3,0,15-6.7,15-15V304.2C512,295.9,505.3,289.2,497,289.2z M482,482L482,482H30
			V319.2h115.6c7.4,54.4,54.1,96.4,110.4,96.4c56.3,0,103-42,110.4-96.4H482L482,482L482,482z"/>
	</g>
</g>
<g>
	<g>
		<path d="M334.8,129c-5.9-5.9-15.4-5.9-21.2,0L271,171.6V15c0-8.3-6.7-15-15-15s-15,6.7-15,15v156.6L198.4,129
			c-5.9-5.9-15.4-5.9-21.2,0c-5.9,5.9-5.9,15.4,0,21.2l68.2,68.2c2.8,2.8,6.6,4.4,10.6,4.4c4,0,7.8-1.6,10.6-4.4l68.2-68.2
			C340.6,144.4,340.6,134.9,334.8,129z"/>
	</g>
</g>
</svg>
