<?xml version="1.0" encoding="iso-8859-1"?>
<!-- Generator: Adobe Illustrator 19.0.0, SVG Export Plug-In . SVG Version: 6.00 Build 0)  -->
<svg version="1.1" id="Capa_1" xmlns="http://www.w3.org/2000/svg" xmlns:xlink="http://www.w3.org/1999/xlink" x="0px" y="0px"
	 viewBox="0 0 512 512" style="enable-background:new 0 0 512 512;" xml:space="preserve">
<g>
	<g>
		<path d="M0,0v512h512V0H0z M241,421H60v30h181v31H30V30h332v331H60v30h181V421z M271,391h69.787L271,460.787V391z M422,482
			H292.213L392,382.213V30h30V482z M482,482h-30V30h30V482z"/>
	</g>
</g>
<g>
	<g>
		<rect x="60" y="301" width="272" height="30"/>
	</g>
</g>
<g>
	<g>
		<circle cx="196" cy="166" r="15"/>
	</g>
</g>
<g>
	<g>
		<path d="M270.999,166c0-8.298-1.375-16.276-3.875-23.744l27.307-15.766l-15-25.98l-27.337,15.783
			c-10.583-11.93-24.892-20.481-41.095-23.784V61h-30v31.509c-16.203,3.302-30.512,11.854-41.095,23.784l-27.337-15.783l-15,25.98
			l27.307,15.766C122.375,149.724,121,157.702,121,166c0,8.298,1.375,16.276,3.875,23.744L97.567,205.51l15,25.98l27.337-15.783
			c10.583,11.93,24.892,20.481,41.095,23.784V271h30v-31.509c16.203-3.302,30.512-11.854,41.095-23.784l27.337,15.783l15-25.98
			l-27.307-15.766C269.624,182.276,270.999,174.298,270.999,166z M196,211c-24.813,0-45-20.187-45-45s20.187-45,45-45
			s45,20.187,45,45S220.813,211,196,211z"/>
	</g>
</g>
<g>
</g>
<g>
</g>
<g>
</g>
<g>
</g>
<g>
</g>
<g>
</g>
<g>
</g>
<g>
</g>
<g>
</g>
<g>
</g>
<g>
</g>
<g>
</g>
<g>
</g>
<g>
</g>
<g>
</g>
</svg>
