<?xml version="1.0" encoding="utf-8"?>
<!-- Generator: Adobe Illustrator 22.1.0, SVG Export Plug-In . SVG Version: 6.00 Build 0)  -->
<svg version="1.1" id="Capa_1" xmlns="http://www.w3.org/2000/svg" xmlns:xlink="http://www.w3.org/1999/xlink" x="0px" y="0px"
	 viewBox="0 0 240.8 251.5" style="enable-background:new 0 0 240.8 251.5;" xml:space="preserve">
<g>
	<path d="M239.4,231.7L159.4,59.3h0.1c-0.7-1.7-1.4-3.4-2.2-5h-0.3L136,8.7c-2.5-5.3-7.8-8.7-13.6-8.7h-5.3
		c-5.9,0-11.2,3.4-13.6,8.8L82.6,54.3h-0.1c-0.2,0.7-0.5,1.5-0.8,2.1c-0.3,0.6-0.6,1.1-0.9,1.6c-0.2,0.5-0.3,1.1-0.6,1.6
		c0,0,0,0.1-0.1,0.1L1.4,231.8c-2.1,4.6-1.7,10,1,14.3c1.1,1.7,2.5,3.1,4.1,4.2c3.1,0.7,6.4,0.8,9.5,1.1c0,0,0.1,0,0.1,0
		c0.1,0,0.1-0.1,0.2-0.1c0.6-0.1,1.3-0.1,1.9,0c1.6-0.2,3.3,0,4.9-0.1c1.8-0.2,3.6-0.5,5.3-1.1c2-1.5,3.7-3.5,4.8-5.9l27.4-60.1
		h119.6l27.7,60.1c1.1,2.4,2.8,4.4,4.9,5.9c0,0,0.1,0,0.1,0c2,0.5,4,0.2,6.1,0.2c2,0,4,0.1,6,0.2c1.7,0,3.4,0,5.1-0.1
		c0.8-0.1,1.5-0.1,2.3-0.2c0.9-0.1,1.7-0.3,2.6-0.5c1.3-1,2.5-2.3,3.5-3.8C241.2,241.8,241.5,236.4,239.4,231.7z M75.8,150.6
		l41.4-91.3h5.3l42.3,91.3H75.8z"/>
</g>
</svg>
