<?xml version="1.0" encoding="utf-8"?>
<!-- Generator: Adobe Illustrator 22.1.0, SVG Export Plug-In . SVG Version: 6.00 Build 0)  -->
<svg version="1.1" id="Layer_1" xmlns="http://www.w3.org/2000/svg" xmlns:xlink="http://www.w3.org/1999/xlink" x="0px" y="0px"
	 viewBox="0 0 384 512" style="enable-background:new 0 0 384 512;" xml:space="preserve">
<g>
	<g>
		<g>
			<path d="M166.8,354.3l-6.7,60.5c-0.3,3,0.6,6,2.7,8.3c2,2.3,4.9,3.6,7.9,3.6h42.7c3,0,5.9-1.3,7.9-3.6s3-5.3,2.7-8.3l-6.7-60.5
				c10.9-7.9,17.5-20.5,17.5-34.3c0-23.5-19.1-42.7-42.7-42.7s-42.7,19.1-42.7,42.7C149.3,333.8,155.9,346.4,166.8,354.3z
				 M192,298.7c11.8,0,21.3,9.6,21.3,21.3c0,8.2-4.6,15.5-12.1,19.1c-4.1,2-6.5,6.3-6,10.8l6.2,55.4h-18.8l6.2-55.4
				c0.5-4.5-1.9-8.8-6-10.8c-7.5-3.6-12.1-10.9-12.1-19.1C170.7,308.2,180.2,298.7,192,298.7z"/>
			<path d="M373.3,192h-32v-42.7C341.3,67,274.3,0,192,0S42.7,67,42.7,149.3V192h-32C4.8,192,0,196.8,0,202.7v266.7
				C0,492.9,19.1,512,42.7,512h298.7c23.5,0,42.7-19.1,42.7-42.7V202.7C384,196.8,379.2,192,373.3,192z M64,149.3
				c0-70.6,57.4-128,128-128s128,57.4,128,128V192h-21.3v-42.7c0-58.8-47.9-106.7-106.7-106.7S85.3,90.5,85.3,149.3V192H64V149.3z
				 M277.3,149.3V192H106.7v-42.7c0-47.1,38.3-85.3,85.3-85.3S277.3,102.3,277.3,149.3z M362.7,469.3c0,11.8-9.6,21.3-21.3,21.3
				H42.7c-11.8,0-21.3-9.6-21.3-21.3v-256h341.3V469.3z"/>
		</g>
	</g>
</g>
</svg>
