<?xml version="1.0" encoding="utf-8"?>
<!-- Generator: Adobe Illustrator 22.1.0, SVG Export Plug-In . SVG Version: 6.00 Build 0)  -->
<svg version="1.1" id="Слой_1" xmlns="http://www.w3.org/2000/svg" xmlns:xlink="http://www.w3.org/1999/xlink" x="0px" y="0px"
	 viewBox="0 0 90 90" style="enable-background:new 0 0 90 90;" xml:space="preserve">
<title>next</title>
<g id="Layer_2">
	<g id="Layer_1-2">
		<g>
			<path d="M45,90C20.2,90,0,69.8,0,45C0,20.2,20.2,0,45,0c24.8,0,45,20.2,45,45C90,69.8,69.8,90,45,90z M45,2C21.3,2,2,21.3,2,45
				c0,23.7,19.3,43,43,43c23.7,0,43-19.3,43-43C88,21.3,68.7,2,45,2z"/>
		</g>
		<g>
			<path d="M24.5,48h32.1L41.7,62.8l3.7,3.7l21.1-21.1L45.4,24.3L41.8,28l14.8,14.8H24.3L24.5,48z"/>
		</g>
	</g>
</g>
</svg>
