<?xml version="1.0" encoding="utf-8"?>
<!-- Generator: Adobe Illustrator 22.1.0, SVG Export Plug-In . SVG Version: 6.00 Build 0)  -->
<svg version="1.1" id="Capa_1" xmlns="http://www.w3.org/2000/svg" xmlns:xlink="http://www.w3.org/1999/xlink" x="0px" y="0px"
	 viewBox="0 0 512 512" style="enable-background:new 0 0 512 512;" xml:space="preserve">
<g>
	<g>
		<path d="M290.1,64.2c0-18.8-15.3-34.1-34.1-34.1c-18.8,0-34.1,15.3-34.1,34.1c0,5.6,1.4,10.9,3.8,15.5
			c-43.5,12.2-76.2,50-80.9,96.5L132.2,323c-1.3,0.2-5.8,2.2-6.9,2.5c-23.7,7.5-39.6,29.3-39.6,54.1c0,18.8,15.2,34.1,34.1,34.1
			h80.6c5.2,25.7,27.9,45.4,55.6,45.4c27.7,0,50.4-19.7,55.6-45.4l80.6,0c18.8,0,34.1-15.3,34.1-34.1c0-24.8-15.9-46.6-39.6-54.1
			c-1.1-0.3-5.5-2.4-6.9-2.5l-12.7-146.9c-4.7-46.8-37.7-84.3-80.9-96.4C288.7,75.1,290.1,69.8,290.1,64.2z M256,436.4
			c-15,0-27.5-9.6-32.1-22.7l64.2,0C283.6,426.7,271.1,436.4,256,436.4z M403.6,379.7c0,6.3-5.1,11.4-11.4,11.4l-272.5,0
			c-6.3,0-11.4-5.1-11.4-11.4c0-9.3,3.7-17.9,9.9-24.1c3.8-3.8,8.4-6.7,13.8-8.4c1.4-0.5,10.4-1.6,10.4-1.6c0,0,0,0,0,0l226.9,0
			c0,0,0,0,0,0c0,0,9,1.1,10.4,1.6C394.1,351.7,403.6,364.8,403.6,379.7z M344.6,178.3l12.5,144.6l-202.1,0l12.5-144.5
			c4.6-45.7,42.6-80.1,88.6-80.1C301.9,98.3,340,132.7,344.6,178.3z M256,75.6c-6.3,0-11.4-5.1-11.4-11.4c0-6.3,5.1-11.4,11.4-11.4
			c6.3,0,11.4,5.1,11.4,11.4C267.4,70.5,262.3,75.6,256,75.6z"/>
	</g>
</g>
<g>
	<g>
		<path d="M256,121c-6.3,0-11.4,5.1-11.4,11.4c0,6.3,5.1,11.4,11.4,11.4c22.5,0,41.1,16.9,43.4,39.3l2.9,29.3
			c0.6,6.2,6.2,10.8,12.4,10.2c6.2-0.6,10.8-6.2,10.2-12.4l-2.9-29.3C318.6,146.6,290.2,121,256,121z"/>
	</g>
</g>
</svg>
