<svg xmlns="http://www.w3.org/2000/svg" viewBox="0 0 368 368"><title>orders</title><g id="Layer_2" data-name="Layer 2"><g id="Layer_1-2" data-name="Layer 1"><path d="M316.92,66.34a8,8,0,0,0-11.31,0l-32,32h0s0,0,0,0L272,100V40a8,8,0,0,0-8-8H208V8a8,8,0,0,0-8-8H72a8,8,0,0,0-8,8V32H8a8,8,0,0,0-8,8V360a8,8,0,0,0,8,8H264a8,8,0,0,0,8-8V220l61.65-61.65h0l32-32a8,8,0,0,0,0-11.3ZM258.35,211.06v0L181.43,288H144V250.59L268.92,125.66l.72-.72s0,0,0,0l9.61-9.6,37.41,37.42ZM80,16H192V64H80ZM64,48V72a8,8,0,0,0,8,8H200a8,8,0,0,0,8-8V48h48v64H16V48ZM256,352H16V128H244L130.34,241.62a8,8,0,0,0-2.34,5.65V296a8,8,0,0,0,8,8h48.73a8,8,0,0,0,5.66-2.34L256,236Zm72-210.59L290.57,104l20.7-20.69,37.42,37.42Z"/></g></g></svg>