<svg id="Capa_1" data-name="Capa 1" xmlns="http://www.w3.org/2000/svg" viewBox="0 0 473.04 512"><title>order hostory</title><path d="M423.24,108.24A234.77,234.77,0,0,0,272.68,39.55l28.76-28.76L290.65,0,242.53,48.12l48.12,48.12,10.79-10.79L270.71,54.73c115.17,7.59,206.55,103.7,206.55,220.75,0,122-99.26,221.26-221.26,221.26S34.74,397.49,34.74,275.48c0-4.9.16-9.87.49-14.74l-15.23-1c-.34,5.21-.52,10.5-.52,15.74A236.52,236.52,0,0,0,423.24,442.73a236.51,236.51,0,0,0,0-334.49Z" transform="translate(-19.48)"/><path d="M73.36,150.55l-12.58-8.63c-3,4.32-5.82,8.8-8.48,13.29L65.44,163C67.92,158.78,70.59,154.59,73.36,150.55Z" transform="translate(-19.48)"/><path d="M91.61,127.39,80.28,117.17c-3.51,3.89-6.93,7.94-10.16,12l12,9.44C85.13,134.82,88.33,131,91.61,127.39Z" transform="translate(-19.48)"/><path d="M39.11,231.51l-15-3c-1,5.13-1.91,10.36-2.6,15.56l15.13,2C37.33,241.2,38.14,236.3,39.11,231.51Z" transform="translate(-19.48)"/><path d="M112.76,106.84l-9.89-11.62c-4,3.39-7.9,7-11.66,10.6l10.63,10.94C105.36,113.35,109,110,112.76,106.84Z" transform="translate(-19.48)"/><path d="M58.35,175.92,44.73,169c-2.36,4.68-4.59,9.5-6.63,14.31l14,6C54.06,184.8,56.14,180.29,58.35,175.92Z" transform="translate(-19.48)"/><path d="M46.86,203.07l-14.42-5c-1.71,5-3.28,10-4.65,15.07l14.72,4C43.8,212.43,45.26,207.69,46.86,203.07Z" transform="translate(-19.48)"/><path d="M257.06,442.27c92.26,0,167.32-75.06,167.32-167.32S349.32,107.63,257.06,107.63,89.75,182.69,89.75,275,164.8,442.27,257.06,442.27Zm0-319.38c83.85,0,152.06,68.21,152.06,152.06S340.91,427,257.06,427,105,358.8,105,275,173.22,122.89,257.06,122.89Z" transform="translate(-19.48)"/><rect x="228.89" y="140.69" width="15.26" height="15.26"/><rect x="228.89" y="392.98" width="15.26" height="15.26"/><rect x="102.74" y="266.83" width="15.26" height="15.26"/><rect x="355.03" y="266.83" width="15.26" height="15.26"/><polygon points="287.18 311.8 244.15 268.76 244.15 184.44 228.89 184.44 228.89 275.08 276.39 322.59 287.18 311.8"/></svg>