<svg id="Layer_1" data-name="Layer 1" xmlns="http://www.w3.org/2000/svg" xmlns:xlink="http://www.w3.org/1999/xlink" viewBox="0 0 30.68 43.81"><defs><style>.cls-1{fill:none;}.cls-2{clip-path:url(#clip-path);}</style><clipPath id="clip-path" transform="translate(-290 -374.11)"><rect class="cls-1" x="290" y="374" width="30.96" height="44.88"/></clipPath></defs><title>placeholder</title><g class="cls-2"><path d="M305.48,383.72a5.6,5.6,0,1,0,5.6,5.59,5.6,5.6,0,0,0-5.6-5.59Zm0,9.59a4,4,0,1,1,4-4,4,4,0,0,1-4,4Zm0,0" transform="translate(-290 -374.11)"/><path d="M316.19,378.61a15.33,15.33,0,0,0-21.7,0c-5.36,5.36-6,15.45-1.44,21.56l12.29,17.75,12.27-17.73c4.61-6.13,3.94-16.22-1.42-21.58Zm.13,20.65-11,15.85-11-15.87c-4.16-5.55-3.56-14.66,1.27-19.5a13.76,13.76,0,0,1,19.44,0c4.84,4.84,5.44,13.95,1.26,19.52Zm0,0" transform="translate(-290 -374.11)"/></g></svg>