<?xml version="1.0" encoding="utf-8"?>
<!-- Generator: Adobe Illustrator 22.1.0, SVG Export Plug-In . SVG Version: 6.00 Build 0)  -->
<svg version="1.1" id="Слой_1" xmlns="http://www.w3.org/2000/svg" xmlns:xlink="http://www.w3.org/1999/xlink" x="0px" y="0px"
	 viewBox="0 0 90 90" style="enable-background:new 0 0 90 90;" xml:space="preserve">
<title>next</title>
<g id="Layer_2">
	<g id="Layer_1-2">
		<g>
			<path d="M0,45C0,20.2,20.2,0,45,0c24.8,0,45,20.2,45,45c0,24.8-20.2,45-45,45C20.2,90,0,69.8,0,45z M2,45c0,23.7,19.3,43,43,43
				c23.7,0,43-19.3,43-43C88,21.3,68.7,2,45,2C21.3,2,2,21.3,2,45z"/>
		</g>
		<g>
			<path d="M65.7,42.8H33.4L48.2,28l-3.6-3.7L23.5,45.4l21.1,21.1l3.7-3.7L33.4,48h32.1L65.7,42.8z"/>
		</g>
	</g>
</g>
</svg>
