<svg xmlns="http://www.w3.org/2000/svg" viewBox="0 0 440 512"><title>products</title><g id="Layer_2" data-name="Layer 2"><g id="Capa_1" data-name="Capa 1"><path d="M220,346a10,10,0,1,0-10-10A10,10,0,0,0,220,346Z"/><path d="M0,472a40,40,0,0,0,70,26.43,39.95,39.95,0,0,0,60,0,39.95,39.95,0,0,0,60,0,39.95,39.95,0,0,0,60,0,39.95,39.95,0,0,0,60,0,39.95,39.95,0,0,0,60,0A40,40,0,0,0,440,472a10.34,10.34,0,0,0-.29-2.42C438.24,465.89,411.11,323,293,213.64l18-37.39A287,287,0,0,0,340,77a8.71,8.71,0,0,0,.05-1V30a30,30,0,0,0-60,0V48.84a191.6,191.6,0,0,0-34.38,15.91A178.26,178.26,0,0,0,220,83.33a178,178,0,0,0-25.68-18.59A192.1,192.1,0,0,0,160,48.88V30a30,30,0,0,0-60,0V76a9,9,0,0,0,.06,1,287,287,0,0,0,29,99.51l18.09,37.11C29.59,322.05,2.11,462.17.3,466.65-.15,468.48.06,469.61,0,472ZM146.16,166A267.22,267.22,0,0,1,120,75.48V30a10,10,0,0,1,20,0V56.13a10,10,0,0,0,7.11,9.57l.6.19A171.73,171.73,0,0,1,184.08,82a161,161,0,0,1,29,22.12,10,10,0,0,0,13.8,0,161.75,161.75,0,0,1,29-22.12A170.64,170.64,0,0,1,292.2,65.89l.73-.23A10,10,0,0,0,300,56.1V30a10,10,0,0,1,20,0V75.48a267.59,267.59,0,0,1-9.2,46.92,267,267,0,0,1-17,43.6Zm138,20-9.65,20H165.66l-9.75-20ZM20,470.33c.59-1.44,27.54-139.44,143.25-244.43h9.46c-15.23,29.59-28.44,62.83-39.36,98.87a10,10,0,0,0,19.15,5.8c11.7-38.67,26.1-73.81,42.82-104.57H210v70a10,10,0,0,0,20,0V226h14.87c16.46,30.41,30.68,65.3,42.29,103.84a10,10,0,0,0,19.15-5.76c-10.81-35.9-23.86-68.8-38.84-98.08H277C392.06,331,418.8,470.23,420,473.11A20,20,0,0,1,380,472a10,10,0,0,0-20,0,20,20,0,0,1-40,0,10,10,0,0,0-20,0,20,20,0,0,1-40,0,10,10,0,0,0-20,0,20,20,0,0,1-40,0,10,10,0,0,0-20,0,20,20,0,0,1-40,0,10,10,0,0,0-20,0,20,20,0,0,1-40,0,10,10,0,0,0-20,0,20,20,0,0,1-40,0v-1.67Z"/></g></g></svg>