<?xml version="1.0" encoding="iso-8859-1"?>
<!-- Generator: Adobe Illustrator 19.0.0, SVG Export Plug-In . SVG Version: 6.00 Build 0)  -->
<svg version="1.1" id="Capa_1" xmlns="http://www.w3.org/2000/svg" xmlns:xlink="http://www.w3.org/1999/xlink" x="0px" y="0px"
	 viewBox="0 0 512 512" style="enable-background:new 0 0 512 512;" xml:space="preserve">
<g>
	<g>
		<path d="M507.607,197.199L314.804,4.394C311.991,1.581,308.176,0,304.198,0c-3.979,0-7.794,1.581-10.607,4.394L4.394,293.595
			c-5.858,5.858-5.858,15.355,0,21.213l28.988,28.989l-17.629,17.629c-5.858,5.858-5.858,15.355,0,21.213
			c2.929,2.929,6.768,4.393,10.606,4.393c3.839,0,7.678-1.464,10.606-4.393l17.629-17.629l35.593,35.593l-51.712,51.711
			c-5.858,5.858-5.858,15.355,0,21.213c2.929,2.929,6.768,4.393,10.606,4.393c3.839,0,7.678-1.464,10.607-4.393l51.712-51.712
			l35.589,35.589l-17.628,17.63c-5.857,5.858-5.856,15.356,0.002,21.213c2.929,2.929,6.767,4.393,10.605,4.393
			c3.839,0,7.679-1.465,10.607-4.394l17.626-17.628l28.988,28.988c2.929,2.929,6.768,4.394,10.607,4.394
			c3.838,0,7.678-1.465,10.606-4.393l289.203-289.194c2.814-2.813,4.394-6.628,4.394-10.607
			C512,203.828,510.42,200.012,507.607,197.199z M281.183,59.229l-37.887,184.069L59.228,281.186L281.183,59.229z M207.797,475.787
			L46.455,314.444L259.02,270.69c5.871-1.209,10.459-5.796,11.668-11.668l43.753-212.565l161.346,161.349L207.797,475.787z"/>
	</g>
</g>

</svg>
