<?xml version="1.0" encoding="utf-8"?>
<!-- Generator: Adobe Illustrator 22.1.0, SVG Export Plug-In . SVG Version: 6.00 Build 0)  -->
<svg version="1.1" id="Capa_1" xmlns="http://www.w3.org/2000/svg" xmlns:xlink="http://www.w3.org/1999/xlink" x="0px" y="0px"
	 viewBox="0 0 453.5 453.5" style="enable-background:new 0 0 453.5 453.5;" xml:space="preserve">
<g>
	<path d="M423.1,112.9L423.1,112.9c-20.2-34.6-47.9-62.3-82.5-82.5C306,10.2,267.7,0,226.8,0c-40.9,0-79.2,10.2-113.8,30.4
		c-34.6,20.2-62.3,47.9-82.5,82.5C10.2,147.5,0,185.8,0,226.8c0,40.9,10.2,79.2,30.4,113.8c20.2,34.6,47.9,62.3,82.5,82.5
		c34.6,20.2,72.9,30.4,113.8,30.4c40.9,0,79.2-10.2,113.8-30.4c34.6-20.2,62.3-47.9,82.5-82.5c20.2-34.6,30.4-72.9,30.4-113.8
		C453.5,185.8,443.3,147.5,423.1,112.9z M226.8,402c-23.6,0-46.5-4.7-68-14c-21.6-9.3-40.4-21.9-55.9-37.4
		c-15.5-15.5-28.1-34.3-37.4-55.9c-9.3-21.5-14-44.4-14-68c0-23.6,4.7-46.5,14-68c9.3-21.6,21.9-40.4,37.4-55.9
		c15.5-15.5,34.3-28.1,55.9-37.4c21.5-9.3,44.4-13.9,68-13.9c23.6,0,46.5,4.7,68,13.9c21.6,9.3,40.4,21.9,55.9,37.4
		c15.5,15.5,28.1,34.3,37.4,55.9c9.3,21.5,14,44.4,14,68c0,23.6-4.7,46.5-14,68c-9.3,21.6-21.9,40.4-37.4,55.9
		c-15.5,15.5-34.3,28.1-55.9,37.4C273.3,397.3,250.4,402,226.8,402z"/>
	<path d="M321.9,247.9c-6.6-2.1-13.3-1.6-19.6,1.6c-6.4,3.2-10.9,8.5-12.9,15.3c-4.3,13.8-12.1,24.6-23.7,33.2
		c-11.6,8.5-24.3,12.7-38.8,12.7c-14.5,0-27.2-4.1-38.8-12.7c-11.6-8.5-19.4-19.4-23.7-33.1c-2.1-6.8-6.5-12.1-12.8-15.3
		c-6.3-3.2-12.8-3.7-19.5-1.6c-6.8,2.1-12.1,6.5-15.3,12.7c-3.2,6.2-3.7,12.9-1.6,19.5c7.5,24.5,21.7,44.5,42.1,59.5
		c20.4,15,43.8,22.6,69.5,22.6c25.7,0,49.1-7.6,69.5-22.6c20.5-15,34.6-35,42.1-59.5c2.1-6.6,1.5-13.3-1.6-19.5
		C333.6,254.3,328.6,250,321.9,247.9z"/>
</g>
</svg>
