<svg id="Layer_1" data-name="Layer 1" xmlns="http://www.w3.org/2000/svg" viewBox="0 0 389.04 359.6"><title>upload</title><path d="M427.4,309.92a112.69,112.69,0,0,0-208.8-37.44,64.55,64.55,0,0,0-11.84-1.12A61.76,61.76,0,0,0,145.08,333a67.42,67.42,0,0,0,1.28,12.8A85.83,85.83,0,0,0,111,415a91.76,91.76,0,0,0,23.28,60.72c15.44,17.44,35.84,27.76,57.6,29h69.44a10.8,10.8,0,0,0,0-21.6H192.84c-32.72-2-60.24-33.12-60.24-68.16a64.12,64.12,0,0,1,31.76-55.2,10.89,10.89,0,0,0,4.72-13.12,39.19,39.19,0,0,1-2.4-13.76,40.15,40.15,0,0,1,40.08-40.08,39.39,39.39,0,0,1,13.68,2.4A10.85,10.85,0,0,0,234,289.68a91.08,91.08,0,0,1,173,30,10.79,10.79,0,0,0,9,9.6c35.6,6.08,62.48,39,62.48,76.48,0,39.76-31.28,74.32-69.84,77.28h-59a10.8,10.8,0,0,0,0,21.6H409.8A95.71,95.71,0,0,0,474,473,99.63,99.63,0,0,0,500,405.76c-.08-44.88-30.72-84.8-72.64-95.84Zm0,0" transform="translate(-111 -216)"/><path d="M370.36,425.28a10.77,10.77,0,0,0,0-15.28l-57.2-57.2a10.93,10.93,0,0,0-7.6-3.2,10.59,10.59,0,0,0-7.6,3.2L240.76,410a10.84,10.84,0,0,0,7.6,18.48,10.54,10.54,0,0,0,7.6-3.2l38.8-38.8V564.8a10.8,10.8,0,1,0,21.6,0V386.48l38.8,38.8a10.67,10.67,0,0,0,15.2,0Zm0,0" transform="translate(-111 -216)"/></svg>