<?xml version="1.0" encoding="utf-8"?>
<!-- Generator: Adobe Illustrator 22.1.0, SVG Export Plug-In . SVG Version: 6.00 Build 0)  -->
<svg version="1.1" id="Layer_1" xmlns="http://www.w3.org/2000/svg" xmlns:xlink="http://www.w3.org/1999/xlink" x="0px" y="0px"
	 viewBox="0 0 512 512" style="enable-background:new 0 0 512 512;" xml:space="preserve">

<g>
	<g>
		<g>
			<path class="st0" d="M506.4,421.5L291.6,49.4c-15.8-27.4-55.3-27.4-71.1,0L5.6,421.5c-15.8,27.4,3.9,61.6,35.6,61.6h429.7
				C502.5,483.2,522.3,448.9,506.4,421.5z M470.9,445.5H41.1c-2.7,0-4.3-2.8-3-5.2L253,68.2c1.3-2.3,4.6-2.3,5.9,0l214.9,372.1
				C475.2,442.7,473.5,445.5,470.9,445.5z"/>
			<path class="st0" d="M256,185c-10.4,0-18.8,8.4-18.8,18.8v107.9c0,10.4,8.4,18.8,18.8,18.8c10.4,0,18.8-8.4,18.8-18.8V203.8
				C274.8,193.4,266.4,185,256,185z"/>
			<path class="st0" d="M256,355c-10.4,0-18.8,8.4-18.8,18.8V385c0,10.4,8.4,18.8,18.8,18.8c10.4,0,18.8-8.4,18.8-18.8v-11.2
				C274.8,363.4,266.4,355,256,355z"/>
		</g>
	</g>
</g>
</svg>
