<svg id="Layer_1" data-name="Layer 1" xmlns="http://www.w3.org/2000/svg" viewBox="0 0 534.08 736.08"><title>zip-compressed-files-extension (1)</title><path d="M716.52,137.52a12,12,0,0,0,12-12v-22.4a12,12,0,0,0-12-12h-34.4v46.4Zm0,0" transform="translate(-415 -16)"/><path d="M635.72,149.52v22.4a12,12,0,0,0,12,12h34.4v-46.4h-34.4a12,12,0,0,0-12,12Zm0,0" transform="translate(-415 -16)"/><path d="M716.52,230.4a12,12,0,0,0,12-12V196a12,12,0,0,0-12-12h-34.4v46.4Zm0,0" transform="translate(-415 -16)"/><path d="M635.72,242.4v22.4a12,12,0,0,0,12,12h22.4a12,12,0,0,0,12-12V230.4h-34.4a11.93,11.93,0,0,0-12,12Zm0,0" transform="translate(-415 -16)"/><path d="M712.52,303.2h-60.8a16,16,0,0,0-16,16V420.8a16,16,0,0,0,16,16h60.8a16,16,0,0,0,16-16V319.2a16,16,0,0,0-16-16Zm-7.2,109.6h-46.4V390.4h46.4Zm0,0" transform="translate(-415 -16)"/><path d="M799.32,580.16H772.6v48.08H800c17.28,0,27.44-10.32,27.44-23.84V604c-.08-15.52-10.88-23.84-28.16-23.84Zm0,0" transform="translate(-415 -16)"/><path d="M940.12,176.64c-3.12-3.6-6.24-7.12-9.44-10.72-4.32-4.88-8.56-9.76-12.88-14.72-5.12-5.84-10.24-11.68-15.36-17.6l-17-19.36c-5.84-6.64-11.68-13.36-17.52-20l-17.2-19.6c-5.28-6-10.56-12.08-15.84-18.08L821.32,41,811,29.28c-2.08-2.32-4.08-4.64-6.16-7-3.12-3.6-7.28-6.32-12.16-6.32H443.88A28.92,28.92,0,0,0,415,44.88V723.2a28.92,28.92,0,0,0,28.88,28.88H920.2a28.92,28.92,0,0,0,28.88-28.88V194a11.81,11.81,0,0,0-.08-1.68c-.4-6.72-4.8-11-8.88-15.68ZM631,564.88c0,6.08-2.24,11.2-6.32,16.16l-81.6,94.8h72.56a15.43,15.43,0,0,1,15.28,15.28,15.23,15.23,0,0,1-15.28,15h-103a15.43,15.43,0,0,1-15.28-15.28v-.64a24.17,24.17,0,0,1,6.32-16.16l81.6-94.8H515.32a15.23,15.23,0,0,1-15.28-15A15.43,15.43,0,0,1,515.32,549H615.8a15.43,15.43,0,0,1,15.28,15.28v.64Zm67.68,125.44a17.28,17.28,0,0,1-34.56,0V564.88a17.28,17.28,0,0,1,34.56,0Zm163.76-86.56c0,36.4-28.32,55.28-63.6,55.28H772.52v31.2a17.28,17.28,0,0,1-34.56,0v-124A17.16,17.16,0,0,1,755.24,549h47c37.52,0,60.24,22.24,60.24,54.4ZM920.28,506H444V44.72H635.8v34.4a12,12,0,0,0,12,12h34.4V44.72h96.24V192.4a14.39,14.39,0,0,0,14.4,14.4H920.36V506Zm0,0" transform="translate(-415 -16)"/></svg>