<?xml version="1.0" encoding="iso-8859-1"?>
<!-- Generator: Adobe Illustrator 21.0.0, SVG Export Plug-In . SVG Version: 6.00 Build 0)  -->
<svg xmlns="http://www.w3.org/2000/svg" xmlns:xlink="http://www.w3.org/1999/xlink" version="1.1" id="Capa_1" x="0px" y="0px" viewBox="0 0 512.004 512.004" style="enable-background:new 0 0 512.004 512.004;" xml:space="preserve" width="512" height="512">
<g>
	<path style="fill-rule:evenodd;clip-rule:evenodd;" fill="#fff" d="M256.002,99.158c-86.484,0-156.844,70.36-156.844,156.844   s70.36,156.844,156.844,156.844c86.484,0,156.844-70.36,156.844-156.844S342.486,99.158,256.002,99.158z M256.002,392.846   c-75.456,0-136.844-61.388-136.844-136.844s61.388-136.844,136.844-136.844s136.844,61.388,136.844,136.844   S331.458,392.846,256.002,392.846z"/>
	<path style="fill-rule:evenodd;clip-rule:evenodd;" fill="#fff" d="M294.081,44.994c102.155,18.307,176.301,107.049,176.301,211.008   c0,5.523,4.478,10,10,10c5.522,0,10-4.477,10-10c0-55.316-19.635-109.014-55.288-151.201   c-35.23-41.687-84.056-69.918-137.485-79.494c-5.435-0.975-10.633,2.643-11.606,8.079   C285.027,38.823,288.644,44.019,294.081,44.994z"/>
	<path style="fill-rule:evenodd;clip-rule:evenodd;" fill="#fff" d="M217.922,467.01c-102.155-18.307-176.3-107.049-176.3-211.008   c0-5.523-4.477-10-10-10c-5.523,0-10,4.477-10,10c0,55.316,19.635,109.014,55.288,151.201   c35.229,41.687,84.056,69.918,137.484,79.494c0.597,0.107,1.19,0.158,1.776,0.158c4.75,0,8.964-3.398,9.831-8.237   C226.975,473.181,223.358,467.985,217.922,467.01z"/>
	<path style="fill-rule:evenodd;clip-rule:evenodd;" fill="#fff" d="M345.76,247.342l-130.997-75.631c-3.094-1.786-6.906-1.786-10,0   c-3.094,1.786-5,5.087-5,8.66v151.262c0,3.573,1.906,6.874,5,8.66c1.547,0.893,3.273,1.34,5,1.34c1.727,0,3.453-0.447,5-1.34   l130.997-75.631c3.094-1.786,5-5.087,5-8.66C350.76,252.429,348.853,249.128,345.76,247.342z M219.763,314.312V197.691   l100.997,58.311L219.763,314.312z"/>
	<path style="fill-rule:evenodd;clip-rule:evenodd;" fill="#fff" d="M28.957,208.742c1.283,2.297,3.486,4.09,6.034,4.788   c2.415,0.661,5.032,0.425,7.266-0.719c0.04-0.02,0.082-0.034,0.122-0.055l52.518-27.711c4.885-2.577,6.755-8.626,4.178-13.511   c-2.577-4.885-8.626-6.754-13.511-4.178l-31.553,16.649C79.533,112.15,141.737,58.656,217.923,45.001   c5.437-0.975,9.053-6.171,8.079-11.607c-0.974-5.436-6.169-9.051-11.607-8.079c-44.945,8.056-86.304,29.001-119.606,60.572   c-27.05,25.644-47.397,56.971-59.693,91.636l-16.249-30.795c-2.578-4.886-8.629-6.755-13.511-4.178   c-4.885,2.578-6.755,8.626-4.178,13.511c0,0,27.71,52.514,27.711,52.517C28.897,208.633,28.927,208.687,28.957,208.742z"/>
	<path style="fill-rule:evenodd;clip-rule:evenodd;" fill="#fff" d="M510.846,355.942c0,0-27.699-52.493-27.712-52.517   c-0.566-1.072-1.339-2.034-2.248-2.836c-0.96-0.847-2.086-1.512-3.296-1.935c-1.215-0.424-2.51-0.608-3.795-0.543   c-1.448,0.074-2.886,0.465-4.172,1.136l-52.517,27.711c-4.884,2.578-6.755,8.626-4.177,13.511   c2.577,4.885,8.625,6.755,13.511,4.178l31.552-16.649c-25.521,71.854-87.725,125.348-163.912,139.003   c-5.436,0.975-9.053,6.171-8.078,11.607c0.867,4.84,5.081,8.237,9.831,8.237c0.586,0,1.18-0.051,1.776-0.158   c44.944-8.056,86.304-29.001,119.605-60.572c27.05-25.644,47.396-56.971,59.692-91.636l16.251,30.795   c1.792,3.396,5.262,5.335,8.853,5.335c1.573,0,3.17-0.373,4.658-1.158C511.554,366.876,513.424,360.827,510.846,355.942z"/>
	<path style="fill-rule:evenodd;clip-rule:evenodd;" fill="#fff" d="M256.002,470.382c-5.508,0-10,4.492-10,10c0,5.507,4.492,10,10,10   c5.508,0,10-4.493,10-10C266.002,474.874,261.51,470.382,256.002,470.382z"/>
	<path style="fill-rule:evenodd;clip-rule:evenodd;" fill="#fff" d="M256.002,41.622c5.508,0,10-4.492,10-10s-4.492-10-10-10   c-5.508,0-10,4.492-10,10S250.494,41.622,256.002,41.622z"/>
</g>















</svg>
