<svg xmlns="http://www.w3.org/2000/svg" viewBox="0 0 177 191"><defs><style>.cls-1{fill:#6c2e84;}</style></defs><title>Asset 2</title><g id="Layer_2" data-name="Layer 2"><g id="Layer_1-2" data-name="Layer 1"><path class="cls-1" d="M0,169.31V191l60-18.55V150.76Zm60-40.23v21.68l59.09-18.24V110.83Z"/><path class="cls-1" d="M135.78,68.54l-.73.22c0-2.86,0-4.29,0-7.16l.69-.22c1.08-.33,1.66.09,1.67,2.87,0,3-.56,4-1.61,4.29m5.5-5.55c0-4.62-2.41-5.67-5.48-4.72l-4.55,1.41V79.79l3.83-1.17c0-2.89,0-4.34,0-7.25l.72-.23c.8,2.67,1.2,4,2,6.65l3.85-1.19c-1-3-1.46-4.58-2.43-7.65,1.3-1.19,2.11-3.21,2.09-6m-4.15-13.22-4.23,1.3c0-2.53,0-3.79,0-6.32l2.84-.88c0-1.16,0-1.74,0-2.9l-2.84.87c0-2,0-3,0-5l4.06-1.25c0-1.24,0-1.86,0-3.09L129,35V55.24l8.1-2.49c0-1.19,0-1.79,0-3M172,57.4l-.52.17c0-2.89,0-4.33,0-7.24.22-.06.25-.1.47-.16,1-.31,1.63-.13,1.64,3,0,3.29-.63,4-1.59,4.25m0-10.34-4.17,1.29V68.43l3.63-1.08c0-2.72,0-6.82,0-6.82l.48-.16c2.42-.75,5-2.13,5-8.32,0-5.48-2.42-5.77-4.94-5M124,72.19V75l1.71-.52c-.06,3-.33,4.27-1.56,4.65-1.56.48-1.64-1.71-1.64-6.63s.17-7.09,1.43-7.47c.93-.29,1.26.62,1.32,4.23L128.78,68c-.27-5.26-1.39-7.33-4.84-6.26s-5.22,4.4-5.22,11.88,1.27,9.78,4.67,8.74a4.85,4.85,0,0,0,3.3-3.4h0c0,.89,0,1.34.06,2.23l2.17-.67c0-3.92,0-5.89,0-9.84L124,72.19m38.15-22s0,8.61,0,14.32c0,2.35-.2,3.1-1.16,3.4s-1.2-.36-1.22-2.72c0-5.68,0-14.26,0-14.26l-3.9,1.17s.07,8.71.11,14.48c0,3.74,1.26,5.41,4.92,4.27s4.8-3.56,4.77-7.35c0-5.74,0-14.4,0-14.4Zm-12.7-21.47-3.64,1.12c-.45,4.15-.68,6.23-1.13,10.38-.17,1.62-.34,3.51-.45,5.27h-.06c-.16-1.67-.32-3.46-.51-5-.52-3.86-.78-5.78-1.29-9.63l-3.89,1.2c1.43,7.69,2.14,11.56,3.58,19.25l4-1.25c1.35-8.55,2-12.84,3.36-21.39m-.95,42.83c-1.29.4-1.52-1.33-1.55-6.6s.17-7.08,1.46-7.48S150,58.71,150,64s-.16,7.13-1.49,7.54m-.12-17.33c-3.69,1.14-5.49,4.5-5.45,12s1.89,9.64,5.59,8.49,5.47-4.43,5.41-11.89-1.85-9.71-5.55-8.57m-5.57-28.57c.79-3.11,1.19-4.66,2-7.76l2.11,6.5,3.78-1.17c-1.42-3.82-2.14-5.73-3.56-9.54l2.94-10.39-3.18,1c-.59,2.45-.88,3.68-1.48,6.14L143.77,5.2,140,6.37c1.21,3.3,1.82,5,3.05,8.3L139.64,26.6l3.17-1m8.2,22.8c3.23-1,5-1.49,8.14-2.47,0-1.19,0-1.79,0-3L155,44.26V37.94l2.75-.86c0-1.16,0-1.74,0-2.9-1.12.34-2.73.87-2.73.87V30.1s2.3-.75,3.89-1.24c0-1.23,0-1.85,0-3.08L151,28.19c.06,8.09-.06,12.15,0,20.23M126.81,53l-3.93,1.21V36.88L119.15,38V58.3l7.67-2.37c0-1.19,0-1.78,0-3M154,5.1v17l4-1.18v-17l2.67-.87V0l-9.53,2.93,0,3.05Zm7.31,40.13c3.05-.95,7.66-2.32,7.66-2.32v-3l-3.8,1.17V23.86s-2.35.69-3.85,1.15c.06,8.08-.07,12.14,0,20.22m-39-19.68c0-1.07,0-4.16-.17-5.42l.06,0a36.38,36.38,0,0,0,1.48,5l1.9,5.8,3.12-1,0-20.11-3.25,1V17c0,1.39,0,3.55.18,5.47h0c-.36-1.77-.85-3.6-1.29-5.17-.67-2.25-1-3.37-1.66-5.61l-3.49,1.08V32.92l3.2-1V25.55m16.29-1.62-4.19,1.29c0-2.52,0-3.78,0-6.29l2.82-.87c0-1.15,0-1.73,0-2.88l-2.82.87c0-2,0-2.94,0-4.9l4-1.25c0-1.22,0-1.83,0-3.05l-7.83,2.42V29.38l8.07-2.48c0-1.19,0-1.78,0-3M97.5,19.62,69.9,28.15V112l49.23-15.2V88L97.5,94.63ZM51.22,90.84l-28.5-36L0,61.87v85.76l8.82-2.73V100.25l28.42,35.87,22.8-7V43.33l-8.82,2.72Z"/></g></g></svg>