<svg id="Layer_1" data-name="Layer 1" xmlns="http://www.w3.org/2000/svg" viewBox="0 0 24.85 24.85"><defs><style>.cls-1{fill:#010002;}</style></defs><title>add button</title><path class="cls-1" d="M305.42,408.85a12.43,12.43,0,1,1,12.43-12.43,12.44,12.44,0,0,1-12.43,12.43Zm0-23.43a11,11,0,1,0,11,11,11,11,0,0,0-11-11Zm0,0" transform="translate(-293 -384)"/><path class="cls-1" d="M310.32,397.13h-9.8a.71.71,0,0,1,0-1.42h9.8a.71.71,0,1,1,0,1.42Zm0,0" transform="translate(-293 -384)"/><path class="cls-1" d="M305.42,402a.71.71,0,0,1-.71-.71v-9.8a.71.71,0,0,1,1.42,0v9.8a.71.71,0,0,1-.71.71Zm0,0" transform="translate(-293 -384)"/></svg>