<svg id="Capa_1" data-name="Capa 1" xmlns="http://www.w3.org/2000/svg" viewBox="0 0 512 512"><title>analytics</title><path d="M501.33,512H10.67a10.67,10.67,0,1,1,0-21.33H501.33a10.67,10.67,0,1,1,0,21.33Z"/><path d="M96,512H32a10.67,10.67,0,0,1-10.67-10.67v-128A10.67,10.67,0,0,1,32,362.67H96a10.67,10.67,0,0,1,10.67,10.66v128A10.67,10.67,0,0,1,96,512ZM42.67,490.67H85.33V384H42.67Z"/><path d="M224,512H160a10.67,10.67,0,0,1-10.67-10.67V266.67A10.67,10.67,0,0,1,160,256h64a10.67,10.67,0,0,1,10.67,10.67V501.33A10.67,10.67,0,0,1,224,512Zm-53.33-21.33h42.66V277.33H170.67Z"/><path d="M352,512H288a10.67,10.67,0,0,1-10.67-10.67v-192A10.67,10.67,0,0,1,288,298.67h64a10.67,10.67,0,0,1,10.67,10.66v192A10.67,10.67,0,0,1,352,512Zm-53.33-21.33h42.66V320H298.67Z"/><path d="M480,512H416a10.67,10.67,0,0,1-10.67-10.67v-320A10.67,10.67,0,0,1,416,170.67h64a10.67,10.67,0,0,1,10.67,10.66v320A10.67,10.67,0,0,1,480,512Zm-53.33-21.33h42.66V192H426.67Z"/><path d="M64,277.33a42.67,42.67,0,1,1,42.67-42.66A42.71,42.71,0,0,1,64,277.33Zm0-64a21.34,21.34,0,1,0,21.33,21.34A21.35,21.35,0,0,0,64,213.33Z"/><path d="M192,170.67A42.67,42.67,0,1,1,234.67,128,42.72,42.72,0,0,1,192,170.67Zm0-64A21.33,21.33,0,1,0,213.33,128,21.35,21.35,0,0,0,192,106.67Z"/><path d="M320,213.33a42.67,42.67,0,1,1,42.67-42.66A42.71,42.71,0,0,1,320,213.33Zm0-64a21.34,21.34,0,1,0,21.33,21.34A21.35,21.35,0,0,0,320,149.33Z"/><path d="M448,85.33a42.67,42.67,0,1,1,42.67-42.66A42.71,42.71,0,0,1,448,85.33Zm0-64a21.34,21.34,0,1,0,21.33,21.34A21.35,21.35,0,0,0,448,21.33Z"/><path d="M342.63,158.7a10.66,10.66,0,0,1-7.55-18.2l82.78-82.77a10.66,10.66,0,0,1,15.08,15.08l-82.77,82.77A10.66,10.66,0,0,1,342.63,158.7Z"/><path d="M291.29,167a10.68,10.68,0,0,1-2.93-.41L219.84,147a10.67,10.67,0,0,1,5.85-20.52l68.52,19.54A10.67,10.67,0,0,1,291.29,167Z"/><path d="M86.61,222.72a10.67,10.67,0,0,1-6.65-19l80.42-64.13a10.68,10.68,0,0,1,13.29,16.71L93.25,220.42A10.8,10.8,0,0,1,86.61,222.72Z"/></svg>