<svg xmlns="http://www.w3.org/2000/svg" viewBox="0 0 90 90"><defs><style>.cls-1{fill:#40bde8;}.cls-2{fill:none;stroke:#40bde8;stroke-miterlimit:10;stroke-width:2px;}</style></defs><title>Asset 3</title><g id="Layer_2" data-name="Layer 2"><g id="Layer_1-2" data-name="Layer 1"><path class="cls-1" d="M46.34,44.42V23.29a1.3,1.3,0,0,0-2.59,0V44.42a6.57,6.57,0,0,0,0,12.87V66.7a1.3,1.3,0,0,0,2.59,0V57.29a6.56,6.56,0,0,0,0-12.87ZM45.05,54.83a4,4,0,1,1,4-4A4,4,0,0,1,45.05,54.83Z"/><path class="cls-1" d="M30.51,33.58V23.29a1.3,1.3,0,0,0-2.59,0V33.58a6.57,6.57,0,0,0,0,12.87V66.7a1.3,1.3,0,0,0,2.59,0V46.44a6.56,6.56,0,0,0,0-12.86ZM29.22,44a4,4,0,1,1,4-4A4,4,0,0,1,29.22,44Z"/><path class="cls-1" d="M62.08,33.58V23.29a1.3,1.3,0,0,0-2.59,0V33.58a6.56,6.56,0,0,0,0,12.87V66.71a1.3,1.3,0,0,0,2.59,0V46.44a6.56,6.56,0,0,0,0-12.86ZM60.78,44a4,4,0,1,1,4-4A4,4,0,0,1,60.78,44Z"/><circle class="cls-2" cx="45" cy="45" r="44"/></g></g></svg>