<svg id="Layer_1" data-name="Layer 1" xmlns="http://www.w3.org/2000/svg" viewBox="0 0 38.4 48"><title>auditlog</title><path d="M317.2,392h-20a.8.8,0,0,0,0,1.6h20a.8.8,0,0,0,0-1.6Zm0,0" transform="translate(-286 -372)"/><path d="M297.2,387.2h8a.8.8,0,0,0,0-1.6h-8a.8.8,0,1,0,0,1.6Zm0,0" transform="translate(-286 -372)"/><path d="M317.2,398.4h-20a.8.8,0,0,0,0,1.6h20a.8.8,0,0,0,0-1.6Zm0,0" transform="translate(-286 -372)"/><path d="M317.2,404.8h-20a.8.8,0,1,0,0,1.6h20a.8.8,0,1,0,0-1.6Zm0,0" transform="translate(-286 -372)"/><path d="M317.2,411.2h-20a.8.8,0,1,0,0,1.6h20a.8.8,0,1,0,0-1.6Zm0,0" transform="translate(-286 -372)"/><path d="M320.4,383.67V372H286v44h4v4h34.4V387.67Zm-7.2-4.94,8.47,8.47H313.2ZM287.6,414.4V373.6h31.2v8.47L312.73,376H290v38.4Zm4,4V377.6h20v11.2h11.2v29.6Zm0,0" transform="translate(-286 -372)"/></svg>