<svg id="Layer_1" data-name="Layer 1" xmlns="http://www.w3.org/2000/svg" xmlns:xlink="http://www.w3.org/1999/xlink" viewBox="0 0 44.2 44.2"><defs><style>.cls-1{fill:none;}.cls-2{clip-path:url(#clip-path);}</style><clipPath id="clip-path" transform="translate(-283 -374.68)"><rect class="cls-1" x="283" y="374" width="44.88" height="45.84"/></clipPath></defs><title>edit</title><g class="cls-2"><path d="M325.09,376.78a7.22,7.22,0,0,0-10.18,0l-28.85,28.85,0,.05,0,.06a1.14,1.14,0,0,0-.1.19.14.14,0,0,0,0,.06v0L283,417.89a1,1,0,0,0,0,.16v0a.81.81,0,0,0,.05.27l0,.06a.63.63,0,0,0,.16.23.8.8,0,0,0,.27.18.77.77,0,0,0,.3.06l.18,0L295.86,416l.07,0,.07,0,.16-.1.06-.05h0L325.09,387a7.21,7.21,0,0,0,0-10.19ZM324,377.91a5.62,5.62,0,0,1,.52,7.32l-7.83-7.84a5.61,5.61,0,0,1,7.31.52Zm-4,11.89-7.92-7.92,1.13-1.13,7.92,7.91Zm-33,25.11a.8.8,0,0,0-1.13,0l-.61.6,2-8.58,3.54-.39-.45,4.1s0,.06,0,.09,0,.06,0,.08a.24.24,0,0,0,0,.08.65.65,0,0,0,0,.13.39.39,0,0,0,.08.14l.07.11.13.1.11.07.17.05.08,0h.18l4.1-.45L295,414.6l-8.59,2L287,416a.8.8,0,0,0,0-1.13Zm10-4.38,17.9-17.91a.8.8,0,1,0-1.13-1.13l-17.9,17.9-3.82.43.42-3.82,17.91-17.9a.8.8,0,0,0-1.13-1.13l-17.91,17.9-2.55.28L311,383l7.92,7.91-22.14,22.15Zm25.26-23-7.93-7.93,1.14-1.13,7.92,7.92Zm0,0" transform="translate(-283 -374.68)"/></g></svg>