<svg id="Layer_1" data-name="Layer 1" xmlns="http://www.w3.org/2000/svg" viewBox="0 0 52 52"><title>general info</title><path d="M306,370a26,26,0,1,0,26,26,26,26,0,0,0-26-26Zm0,48.8A22.8,22.8,0,1,1,328.8,396,22.83,22.83,0,0,1,306,418.8Zm0,0" transform="translate(-280 -370)"/><path d="M309.09,385.63a2.68,2.68,0,1,1-2.68-2.67,2.68,2.68,0,0,1,2.68,2.67Zm0,0" transform="translate(-280 -370)"/><path d="M305.71,392.67a1.6,1.6,0,0,0-1.6,1.6v13.61a1.6,1.6,0,0,0,3.2,0V394.27a1.6,1.6,0,0,0-1.6-1.6Zm0,0" transform="translate(-280 -370)"/></svg>