<svg id="Capa_1" data-name="Capa 1" xmlns="http://www.w3.org/2000/svg" viewBox="0 0 512 341.33"><title>payment history</title><path d="M458.67,426.67H53.33A53.41,53.41,0,0,1,0,373.33V138.67A53.41,53.41,0,0,1,53.33,85.33H458.67A53.41,53.41,0,0,1,512,138.67V373.33A53.41,53.41,0,0,1,458.67,426.67Zm-405.34-320a32,32,0,0,0-32,32V373.33a32,32,0,0,0,32,32H458.67a32,32,0,0,0,32-32V138.67a32,32,0,0,0-32-32Z" transform="translate(0 -85.33)"/><path class="test" d="M501.33,234.67H10.67A10.67,10.67,0,0,1,0,224V160a10.67,10.67,0,0,1,10.67-10.67H501.33A10.67,10.67,0,0,1,512,160v64A10.67,10.67,0,0,1,501.33,234.67Zm-480-21.34H490.67V170.67H21.33Z" transform="translate(0 -85.33)"/><path d="M202.67,320h-128a10.67,10.67,0,1,1,0-21.33h128a10.67,10.67,0,0,1,0,21.33Z" transform="translate(0 -85.33)"/><path d="M202.67,362.67h-128a10.67,10.67,0,1,1,0-21.34h128a10.67,10.67,0,0,1,0,21.34Z" transform="translate(0 -85.33)"/><path d="M416,362.67H394.67a32,32,0,0,1-32-32V309.33a32,32,0,0,1,32-32H416a32,32,0,0,1,32,32v21.34A32,32,0,0,1,416,362.67Zm-21.33-64A10.67,10.67,0,0,0,384,309.33v21.34a10.67,10.67,0,0,0,10.67,10.66H416a10.67,10.67,0,0,0,10.67-10.66V309.33A10.67,10.67,0,0,0,416,298.67Z" transform="translate(0 -85.33)"/></svg>