<svg id="Layer_1" data-name="Layer 1" xmlns="http://www.w3.org/2000/svg" xmlns:xlink="http://www.w3.org/1999/xlink" viewBox="0 0 450 512"><defs><style>.cls-1{fill:none;}.cls-2{clip-path:url(#clip-path);}</style><clipPath id="clip-path" transform="translate(-80 -140)"><rect class="cls-1" x="80" y="140" width="450" height="512"/></clipPath></defs><title>trash</title><g class="cls-2"><path d="M185,652H425a45.05,45.05,0,0,0,45-45V321h45a15,15,0,0,0,0-30H499c-7.25-51.37-51.09-91-103.95-91H380V185a45.05,45.05,0,0,0-45-45H275a45.05,45.05,0,0,0-45,45v15H215c-52.85,0-96.7,39.63-103.94,91H95a15,15,0,0,0,0,30h45V607a45.05,45.05,0,0,0,45,45Zm255-45a15,15,0,0,1-15,15H185a15,15,0,0,1-15-15V321H440ZM260,185a15,15,0,0,1,15-15h60a15,15,0,0,1,15,15v15H260Zm-45,45H395c36.29,0,66.63,26.25,73.53,61H141.47c6.9-34.75,37.24-61,73.53-61Zm0,0" transform="translate(-80 -140)"/></g><path d="M230,562a15,15,0,0,0,15-15V396a15,15,0,0,0-30,0V547a15,15,0,0,0,15,15Zm0,0" transform="translate(-80 -140)"/><path d="M305,562a15,15,0,0,0,15-15V396a15,15,0,0,0-30,0V547a15,15,0,0,0,15,15Zm0,0" transform="translate(-80 -140)"/><path d="M380,562a15,15,0,0,0,15-15V396a15,15,0,0,0-30,0V547a15,15,0,0,0,15,15Zm0,0" transform="translate(-80 -140)"/></svg>