<svg id="Layer_1" data-name="Layer 1" xmlns="http://www.w3.org/2000/svg" viewBox="0 0 72.27 81.6"><title>xlsx-file-format-extension</title><path d="M713.69,372.19h-2v-9.46c0-.05,0-.12,0-.17a1.64,1.64,0,0,0-.38-1l-15.74-18v0a1.35,1.35,0,0,0-.32-.26l-.1-.06a1.3,1.3,0,0,0-.32-.14l-.08,0a1.57,1.57,0,0,0-.37-.05H655.73a3.21,3.21,0,0,0-3.2,3.2v26h-2a4.57,4.57,0,0,0-4.57,4.57v23.78a4.58,4.58,0,0,0,4.57,4.58h2V421.4a3.21,3.21,0,0,0,3.2,3.2h52.8a3.2,3.2,0,0,0,3.2-3.2V405.12h2a4.58,4.58,0,0,0,4.58-4.57V376.76a4.57,4.57,0,0,0-4.58-4.57Zm-58-26H692.8v16.37a1.6,1.6,0,0,0,1.6,1.6h14.13v8h-52.8Zm32.42,43.63c-3.15-1.1-5.2-2.83-5.2-5.59,0-3.23,2.7-5.7,7.17-5.7a11.47,11.47,0,0,1,4.82,1L694,383a9.09,9.09,0,0,0-4-.9c-1.85,0-2.75.84-2.75,1.83,0,1.21,1.07,1.74,3.51,2.66,3.34,1.24,4.91,3,4.91,5.65,0,3.17-2.44,5.86-7.63,5.86a12.41,12.41,0,0,1-5.37-1.14l.87-3.54a10.91,10.91,0,0,0,4.75,1.18c2,0,3-.82,3-2.05s-.89-1.86-3.17-2.67Zm-7.24,4.35v3.6H669.09V378.85h4.29v15.33Zm-25.55,3.6h-4.89l5.47-9.58-5.27-9.35h4.91l1.66,3.45c.56,1.15,1,2.08,1.43,3.15h.06c.45-1.21.81-2.05,1.29-3.15l1.6-3.45h4.88l-5.33,9.24,5.61,9.68h-4.94l-1.71-3.42c-.7-1.32-1.15-2.3-1.69-3.4h-.05c-.39,1.1-.87,2.08-1.46,3.4Zm53.17,22.76h-52.8V405.12h52.8Zm0-22.76-1.71-3.43c-.7-1.32-1.15-2.3-1.69-3.4h0c-.4,1.1-.87,2.08-1.46,3.4l-1.58,3.43h-4.88l5.47-9.58-5.27-9.35h4.91L704,382.3c.56,1.15,1,2.08,1.43,3.15h.05c.45-1.21.82-2.05,1.29-3.15l1.61-3.45h4.88l-5.33,9.24,5.61,9.68h-4.94Zm0,0" transform="translate(-646 -343)"/></svg>