<svg xmlns="http://www.w3.org/2000/svg" viewBox="0 0 294.63 317.95"><defs><style>.cls-1{fill:#04b7df;}.cls-2{fill:#0d2143;}</style></defs><title>logo</title><g id="Layer_2" data-name="Layer 2"><g id="Layer_1-2" data-name="Layer 1"><path class="cls-1" d="M0,281.85V318l99.94-30.88V251Zm99.94-67V251l98.35-30.37V184.5Z"/><path class="cls-2" d="M226,114.09l-1.2.37c0-4.76,0-7.15,0-11.92l1.16-.36c1.8-.55,2.76.15,2.77,4.78,0,4.94-.93,6.59-2.69,7.13m9.17-9.23c0-7.7-4-9.43-9.12-7.86l-7.58,2.34v33.48s3.85-1.16,6.38-1.94c0-4.82,0-7.24,0-12.08l1.2-.37c1.32,4.44,2,6.65,3.31,11.06l6.41-2c-1.62-5.07-2.43-7.62-4-12.73,2.15-2,3.5-5.34,3.47-9.92m-6.91-22-7,2.17c0-4.21,0-6.32,0-10.53L225.92,73c0-1.93,0-2.9,0-4.83l-4.72,1.46c0-3.3,0-5,0-8.25l6.75-2.09c0-2,0-3.09,0-5.14l-13.11,4V92l13.48-4.15c0-2,0-3,0-5m58.12,12.7c-.38.11-.5.17-.88.29,0-4.81,0-7.22,0-12,.36-.11.42-.17.78-.28,1.64-.51,2.72-.2,2.73,5,0,5.49-1.05,6.58-2.63,7.08m0-17.21-6.92,2.14v33.43s3.73-1.09,6-1.8c0-4.53,0-11.35,0-11.35l.81-.27c4-1.24,8.32-3.55,8.32-13.84,0-9.12-4-9.61-8.24-8.31m-80,41.83v4.62l2.85-.88c-.1,5-.54,7.12-2.6,7.75-2.59.8-2.73-2.84-2.73-11s.28-11.79,2.38-12.44c1.56-.48,2.1,1,2.21,7l5.86-2c-.46-8.75-2.32-12.19-8.07-10.42-6,1.83-8.69,7.34-8.69,19.79s2.11,16.28,7.77,14.54a8.1,8.1,0,0,0,5.5-5.65l.05,0,.1,3.7,3.62-1.11c0-6.53,0-9.8,0-16.38l-8.22,2.53M269.91,83.5s-.07,14.34,0,23.84c0,3.91-.34,5.15-1.94,5.65s-2-.6-2-4.52c-.08-9.46,0-23.75,0-23.75l-6.5,2s.11,14.5.19,24.11c.05,6.21,2.09,9,8.18,7.11s8-5.94,7.95-12.25c-.07-9.55,0-24,0-24ZM248.77,47.76l-6.06,1.87c-.75,6.9-1.13,10.36-1.89,17.28-.28,2.69-.57,5.83-.75,8.76l-.1,0c-.27-2.79-.53-5.77-.85-8.27-.85-6.42-1.28-9.62-2.13-16l-6.47,2c2.36,12.81,3.55,19.24,5.94,32.05l6.71-2.08c2.26-14.24,3.38-21.38,5.6-35.61m-1.58,71.3c-2.15.67-2.53-2.22-2.59-11s.28-11.79,2.43-12.46,2.57,2.13,2.63,10.89-.26,11.88-2.47,12.56M247,90.21c-6.14,1.9-9.13,7.49-9.07,19.92s3.14,16.05,9.31,14.14,9.09-7.37,9-19.8S253.14,88.31,247,90.21m-9.28-47.56c1.33-5.18,2-7.76,3.31-12.92,1.4,4.32,2.09,6.48,3.5,10.82l6.29-1.94c-2.37-6.37-3.55-9.55-5.92-15.88,2-6.94,2.94-10.4,4.88-17.3l-5.28,1.63c-1,4.08-1.47,6.12-2.46,10.22L239.3,8.66,233,10.6l5.08,13.82c-2.26,7.92-3.4,11.89-5.67,19.86l5.27-1.63M251.37,80.6c5.36-1.66,8.28-2.48,13.54-4.11,0-2,0-3,0-5L258,73.67V63.16s2.72-.87,4.58-1.44c0-1.93,0-2.9,0-4.82-1.86.57-4.54,1.44-4.54,1.44V50.1s3.82-1.24,6.48-2.06c0-2,0-3.08,0-5.13l-13.07,4c.1,13.46-.1,20.21,0,33.67m-40.28,7.55-6.55,2V61.39l-6.21,1.91V97l12.76-3.93v-5M256.36,8.49V36.82l6.6-2V6.52l4.44-1.44V0L251.55,4.88l0,5.08Zm12.16,66.8c5.08-1.57,12.76-3.87,12.76-3.87l0-5-6.31,2V39.71s-3.92,1.15-6.42,1.92c.11,13.45-.1,20.21,0,33.66M203.66,42.52c0-1.77,0-6.92-.29-9l.1,0a62.89,62.89,0,0,0,2.47,8.34c1.26,3.86,1.89,5.79,3.16,9.66l5.19-1.6,0-33.49-5.4,1.67V28.34c0,2.3.06,5.9.3,9.09l-.1,0c-.58-3-1.41-6-2.14-8.61-1.11-3.74-1.66-5.61-2.76-9.34l-5.81,1.8c0,13.31,0,20,0,33.49l5.34-1.64c0-4.26,0-6.39,0-10.64m27.12-2.69-7,2.16c0-4.2,0-6.29,0-10.47l4.7-1.45c0-1.92,0-2.88,0-4.8l-4.69,1.45c0-3.27,0-4.9,0-8.16l6.71-2.07c0-2,0-3.06,0-5.09l-13,4V48.91l13.43-4.12c0-2,0-3,0-5m-68.49-7.17L116.35,46.85V186.38l81.94-25.32V146.4l-36,11.12Zm-77,118.55L37.82,91.32,0,103V245.75l14.68-4.54V166.88L62,226.6l37.95-11.73V72.13L85.26,76.66Z"/></g></g></svg>