<svg height="512pt" viewBox="0 0 512.00053 512" width="512pt" xmlns="http://www.w3.org/2000/svg"><path d="m394.222656 206.757812c3.898438-3.910156 3.898438-10.238281 0-14.148437-3.910156-3.898437-10.238281-3.898437-14.140625 0-3.910156 3.910156-3.910156 10.238281 0 14.148437 3.902344 3.902344 10.230469 3.902344 14.140625 0zm0 0"/><path d="m492 421.976562c0-16.542968-13.457031-30-30-30h-159.996094c-16.542968 0-30 13.457032-30 30v21.71875c-11.636718 4.128907-20 15.242188-20 28.277344v30c0 5.523438 4.476563 10 10 10h239.996094c5.523438 0 10-4.476562 10-10v-30c0-13.035156-8.359375-24.148437-20-28.277344zm-199.996094 0c0-5.515624 4.488282-10 10-10h159.996094c5.515625 0 10 4.484376 10 10v20h-179.996094zm199.996094 69.996094h-219.996094v-20c0-5.511718 4.488282-9.996094 10-9.996094h199.996094c5.515625 0 10 4.484376 10 9.996094zm0 0"/><path d="m365.933594 178.472656c3.90625-3.90625 3.90625-10.238281 0-14.144531l-56.570313-56.570313c-3.902343-3.902343-10.234375-3.902343-14.140625 0-3.90625 3.90625-3.90625 10.238282 0 14.144532l56.570313 56.570312c3.902343 3.902344 10.234375 3.902344 14.140625 0zm0 0"/><path d="m68.289062 490.257812c3.980469-3.980468 191.207032-191.199218 198.65625-198.648437 11.691407 11.691406 30.722657 11.699219 42.417969.003906l7.078125-7.074219 15.34375 15.34375c-5.214844 10.894532-3.554687 24.71875 5.867188 34.140626l14.140625 14.15625c11.699219 11.695312 30.734375 11.695312 42.433593 0l98.988282-99c11.695312-11.695313 11.695312-30.726563 0-42.421876l-14.140625-14.140624c-9.40625-9.402344-23.222657-11.09375-34.148438-5.867188l-129.691406-129.691406c5.226563-10.921875 3.539063-24.738282-5.867187-34.148438l-14.140626-14.136718c-11.695312-11.695313-30.726562-11.699219-42.421874 0l-98.996094 98.988281c-11.699219 11.695312-11.699219 30.730469 0 42.433593l14.148437 14.136719c9.402344 9.402344 23.21875 11.097657 34.144531 5.867188l15.34375 15.34375-7.070312 7.074219c-11.695312 11.695312-11.695312 30.726562 0 42.421874-156.164062 156.171876-10.304688 10.292969-198.640625 198.648438-15.664063 15.636719-15.625 40.976562-.007813 56.566406 15.621094 15.632813 40.933594 15.644532 56.5625.003906zm36.019532-120.867187 28.285156 28.285156-14.136719 14.136719-28.289062-28.289062zm148.496094-91.921875-106.066407 106.066406-28.289062-28.289062 106.066406-106.066406zm-35.355469-120.210938 84.84375-84.855468 127.285156 127.285156-84.855469 84.847656zm247.480469 49.503907 14.140624 14.140625c3.898438 3.894531 3.898438 10.238281 0 14.136718l-98.988281 98.996094c-3.902343 3.902344-10.246093 3.902344-14.144531.003906l-14.140625-14.152343c-3.90625-3.90625-3.910156-10.226563-.003906-14.132813 0-.003906 0-.003906.003906-.003906 0 0 0-.003906.003906-.003906l98.988281-98.980469s.003907 0 .003907-.003906c0 0 .003906 0 .003906-.003907 3.90625-3.902343 10.226563-3.90625 14.132813.003907zm-296.980469-70.710938c-3.902344-3.902343-3.902344-10.25 0-14.148437l98.996093-98.988282c3.898438-3.898437 10.242188-3.898437 14.136719 0l14.140625 14.140626c3.90625 3.90625 3.910156 10.226562.003906 14.132812-.003906.003906-.003906.003906-.003906.003906s-.003906.003906-.003906.003906l-98.980469 98.988282c0 .003906-.003906.003906-.003906.003906 0 .003906-.003906.003906-.003906.003906-1.886719 1.886719-4.394531 2.925782-7.0625 2.925782-6.769531 0-8.539063-5.398438-21.21875-17.066407zm134.351562 134.34375-7.078125 7.074219c-3.894531 3.894531-10.238281 3.894531-14.136718 0l-56.570313-56.570312c-3.898437-3.898438-3.898437-10.242188.003906-14.140626l7.066407-7.074218zm-276.429687 177.441407 50.15625-50.167969 28.285156 28.285156-50.167969 50.164063c-7.769531 7.773437-20.417969 7.855468-28.28125-.007813-7.726562-7.714844-7.894531-20.382813.007813-28.273437zm0 0"/></svg>